<mxfile host="app.diagrams.net" modified="2023-07-06T08:42:50.744Z" agent="Mozilla/5.0 (Windows NT 10.0; Win64; x64) AppleWebKit/537.36 (KHTML, like Gecko) Chrome/114.0.0.0 Safari/537.36" etag="HZwesPWbroGHyG4HVi1V" version="21.5.2" type="github">
  <diagram name="第 1 页" id="Q3I5F-I_9Dcw70OoqjTo">
    <mxGraphModel dx="7903" dy="2086" grid="1" gridSize="10" guides="1" tooltips="1" connect="1" arrows="1" fold="1" page="1" pageScale="1" pageWidth="850" pageHeight="1100" math="0" shadow="0">
      <root>
        <mxCell id="0" />
        <mxCell id="1" parent="0" />
        <mxCell id="FaqCZbPYMvw0_bSV-Ejf-1" style="edgeStyle=orthogonalEdgeStyle;rounded=0;orthogonalLoop=1;jettySize=auto;html=1;exitX=0.5;exitY=1;exitDx=0;exitDy=0;" edge="1" parent="1" source="FaqCZbPYMvw0_bSV-Ejf-2" target="FaqCZbPYMvw0_bSV-Ejf-37">
          <mxGeometry relative="1" as="geometry" />
        </mxCell>
        <mxCell id="FaqCZbPYMvw0_bSV-Ejf-2" value="上传文件（调用文件上传接口）" style="rounded=0;whiteSpace=wrap;html=1;" vertex="1" parent="1">
          <mxGeometry x="-5250" y="-231.5" width="120" height="60" as="geometry" />
        </mxCell>
        <mxCell id="FaqCZbPYMvw0_bSV-Ejf-3" style="edgeStyle=orthogonalEdgeStyle;rounded=0;orthogonalLoop=1;jettySize=auto;html=1;" edge="1" parent="1" source="FaqCZbPYMvw0_bSV-Ejf-4" target="FaqCZbPYMvw0_bSV-Ejf-26">
          <mxGeometry relative="1" as="geometry">
            <mxPoint x="-2621.49" y="-1038.5" as="targetPoint" />
          </mxGeometry>
        </mxCell>
        <mxCell id="FaqCZbPYMvw0_bSV-Ejf-4" value="异步执行【设置解析规则】" style="rounded=0;whiteSpace=wrap;html=1;" vertex="1" parent="1">
          <mxGeometry x="-2679.49" y="-225.5" width="120" height="60" as="geometry" />
        </mxCell>
        <mxCell id="FaqCZbPYMvw0_bSV-Ejf-7" style="edgeStyle=orthogonalEdgeStyle;rounded=0;orthogonalLoop=1;jettySize=auto;html=1;" edge="1" parent="1" source="FaqCZbPYMvw0_bSV-Ejf-8" target="FaqCZbPYMvw0_bSV-Ejf-107">
          <mxGeometry relative="1" as="geometry" />
        </mxCell>
        <mxCell id="FaqCZbPYMvw0_bSV-Ejf-8" value="根据&lt;b&gt;配置&lt;/b&gt;读取归类内首个文件首个sheet数据或csv" style="rounded=0;whiteSpace=wrap;html=1;" vertex="1" parent="1">
          <mxGeometry x="-2755" y="197.5" width="270" height="60" as="geometry" />
        </mxCell>
        <mxCell id="FaqCZbPYMvw0_bSV-Ejf-9" style="edgeStyle=orthogonalEdgeStyle;rounded=0;orthogonalLoop=1;jettySize=auto;html=1;" edge="1" parent="1" source="FaqCZbPYMvw0_bSV-Ejf-110" target="FaqCZbPYMvw0_bSV-Ejf-111">
          <mxGeometry relative="1" as="geometry">
            <mxPoint x="-2620" y="716.5" as="sourcePoint" />
          </mxGeometry>
        </mxCell>
        <mxCell id="FaqCZbPYMvw0_bSV-Ejf-10" style="edgeStyle=orthogonalEdgeStyle;rounded=0;orthogonalLoop=1;jettySize=auto;html=1;" edge="1" parent="1" source="FaqCZbPYMvw0_bSV-Ejf-112" target="FaqCZbPYMvw0_bSV-Ejf-116">
          <mxGeometry relative="1" as="geometry">
            <mxPoint x="-2619.5263157894733" y="867.5" as="sourcePoint" />
            <mxPoint x="-2619.5" y="887.5" as="targetPoint" />
          </mxGeometry>
        </mxCell>
        <mxCell id="FaqCZbPYMvw0_bSV-Ejf-11" value="是" style="edgeStyle=orthogonalEdgeStyle;rounded=0;orthogonalLoop=1;jettySize=auto;html=1;exitX=0.5;exitY=1;exitDx=0;exitDy=0;" edge="1" parent="1" source="FaqCZbPYMvw0_bSV-Ejf-442" target="FaqCZbPYMvw0_bSV-Ejf-443">
          <mxGeometry relative="1" as="geometry">
            <mxPoint x="-2619.49" y="1169.4978426183843" as="sourcePoint" />
            <mxPoint x="-2619.934444444444" y="1265.5" as="targetPoint" />
          </mxGeometry>
        </mxCell>
        <mxCell id="FaqCZbPYMvw0_bSV-Ejf-12" style="edgeStyle=orthogonalEdgeStyle;rounded=0;orthogonalLoop=1;jettySize=auto;html=1;entryX=0;entryY=0.5;entryDx=0;entryDy=0;exitX=0;exitY=0.5;exitDx=0;exitDy=0;" edge="1" parent="1" source="FaqCZbPYMvw0_bSV-Ejf-442" target="FaqCZbPYMvw0_bSV-Ejf-109">
          <mxGeometry relative="1" as="geometry">
            <Array as="points">
              <mxPoint x="-2661" y="1126" />
              <mxPoint x="-2860" y="1126" />
              <mxPoint x="-2860" y="510" />
              <mxPoint x="-2679" y="510" />
            </Array>
            <mxPoint x="-2901.51419625565" y="1126.4999999999995" as="sourcePoint" />
          </mxGeometry>
        </mxCell>
        <mxCell id="FaqCZbPYMvw0_bSV-Ejf-445" value="否" style="edgeLabel;html=1;align=center;verticalAlign=middle;resizable=0;points=[];" vertex="1" connectable="0" parent="FaqCZbPYMvw0_bSV-Ejf-12">
          <mxGeometry x="-0.9437" y="-1" relative="1" as="geometry">
            <mxPoint as="offset" />
          </mxGeometry>
        </mxCell>
        <mxCell id="FaqCZbPYMvw0_bSV-Ejf-17" value="" style="edgeStyle=orthogonalEdgeStyle;rounded=0;orthogonalLoop=1;jettySize=auto;html=1;exitX=0.5;exitY=1;exitDx=0;exitDy=0;" edge="1" parent="1" source="FaqCZbPYMvw0_bSV-Ejf-446" target="FaqCZbPYMvw0_bSV-Ejf-23">
          <mxGeometry relative="1" as="geometry">
            <mxPoint x="-2620.0000000000005" y="1555.5" as="targetPoint" />
            <mxPoint x="-2619.49" y="1459.4979746835447" as="sourcePoint" />
          </mxGeometry>
        </mxCell>
        <mxCell id="FaqCZbPYMvw0_bSV-Ejf-18" value="是" style="edgeLabel;html=1;align=center;verticalAlign=middle;resizable=0;points=[];" vertex="1" connectable="0" parent="FaqCZbPYMvw0_bSV-Ejf-17">
          <mxGeometry x="-0.8582" y="1" relative="1" as="geometry">
            <mxPoint as="offset" />
          </mxGeometry>
        </mxCell>
        <mxCell id="FaqCZbPYMvw0_bSV-Ejf-19" style="edgeStyle=orthogonalEdgeStyle;rounded=0;orthogonalLoop=1;jettySize=auto;html=1;entryX=1;entryY=0.5;entryDx=0;entryDy=0;exitX=1;exitY=0.5;exitDx=0;exitDy=0;" edge="1" parent="1" source="FaqCZbPYMvw0_bSV-Ejf-446" target="FaqCZbPYMvw0_bSV-Ejf-26">
          <mxGeometry relative="1" as="geometry">
            <Array as="points">
              <mxPoint x="-2390" y="1419.5" />
              <mxPoint x="-2390" y="-11.5" />
            </Array>
            <mxPoint x="-2422.0000000000036" y="1419.4999999999995" as="sourcePoint" />
          </mxGeometry>
        </mxCell>
        <mxCell id="FaqCZbPYMvw0_bSV-Ejf-20" value="否" style="edgeLabel;html=1;align=center;verticalAlign=middle;resizable=0;points=[];" vertex="1" connectable="0" parent="FaqCZbPYMvw0_bSV-Ejf-19">
          <mxGeometry x="-0.9444" relative="1" as="geometry">
            <mxPoint as="offset" />
          </mxGeometry>
        </mxCell>
        <mxCell id="FaqCZbPYMvw0_bSV-Ejf-22" style="edgeStyle=orthogonalEdgeStyle;rounded=0;orthogonalLoop=1;jettySize=auto;html=1;" edge="1" parent="1" source="FaqCZbPYMvw0_bSV-Ejf-23" target="FaqCZbPYMvw0_bSV-Ejf-482">
          <mxGeometry relative="1" as="geometry" />
        </mxCell>
        <mxCell id="FaqCZbPYMvw0_bSV-Ejf-23" value="模型列表（每个元素对象包含唯一标识、名称、字段列表）写入redis" style="rounded=0;whiteSpace=wrap;html=1;" vertex="1" parent="1">
          <mxGeometry x="-2759.49" y="1531.5" width="280" height="60" as="geometry" />
        </mxCell>
        <mxCell id="FaqCZbPYMvw0_bSV-Ejf-24" value="结束" style="ellipse;whiteSpace=wrap;html=1;" vertex="1" parent="1">
          <mxGeometry x="-2679.49" y="1814.5" width="120" height="80" as="geometry" />
        </mxCell>
        <mxCell id="FaqCZbPYMvw0_bSV-Ejf-25" style="edgeStyle=orthogonalEdgeStyle;rounded=0;orthogonalLoop=1;jettySize=auto;html=1;" edge="1" parent="1" source="FaqCZbPYMvw0_bSV-Ejf-26" target="FaqCZbPYMvw0_bSV-Ejf-39">
          <mxGeometry relative="1" as="geometry" />
        </mxCell>
        <mxCell id="FaqCZbPYMvw0_bSV-Ejf-26" value="遍历数组" style="rounded=0;whiteSpace=wrap;html=1;" vertex="1" parent="1">
          <mxGeometry x="-2680" y="-41.5" width="120" height="60" as="geometry" />
        </mxCell>
        <mxCell id="FaqCZbPYMvw0_bSV-Ejf-27" style="rounded=0;orthogonalLoop=1;jettySize=auto;html=1;exitX=1;exitY=1;exitDx=0;exitDy=0;exitPerimeter=0;entryX=0;entryY=0.5;entryDx=0;entryDy=0;endArrow=none;endFill=0;dashed=1;" edge="1" parent="1" source="FaqCZbPYMvw0_bSV-Ejf-28" target="FaqCZbPYMvw0_bSV-Ejf-8">
          <mxGeometry relative="1" as="geometry" />
        </mxCell>
        <mxCell id="FaqCZbPYMvw0_bSV-Ejf-28" value="字段名行&lt;br&gt;数据行&lt;br&gt;最后数据行&lt;br&gt;deng" style="shape=note;whiteSpace=wrap;html=1;backgroundOutline=1;darkOpacity=0.05;" vertex="1" parent="1">
          <mxGeometry x="-2910" y="157.5" width="120" height="60" as="geometry" />
        </mxCell>
        <mxCell id="FaqCZbPYMvw0_bSV-Ejf-29" style="edgeStyle=orthogonalEdgeStyle;rounded=0;orthogonalLoop=1;jettySize=auto;html=1;exitX=0.5;exitY=1;exitDx=0;exitDy=0;" edge="1" parent="1" source="FaqCZbPYMvw0_bSV-Ejf-30" target="FaqCZbPYMvw0_bSV-Ejf-32">
          <mxGeometry relative="1" as="geometry">
            <mxPoint x="4879.882352941177" y="-53" as="targetPoint" />
          </mxGeometry>
        </mxCell>
        <mxCell id="FaqCZbPYMvw0_bSV-Ejf-30" value="定时清理临时数据" style="rounded=0;whiteSpace=wrap;html=1;" vertex="1" parent="1">
          <mxGeometry x="4820" y="-223" width="120" height="60" as="geometry" />
        </mxCell>
        <mxCell id="FaqCZbPYMvw0_bSV-Ejf-31" style="edgeStyle=orthogonalEdgeStyle;rounded=0;orthogonalLoop=1;jettySize=auto;html=1;" edge="1" parent="1" source="FaqCZbPYMvw0_bSV-Ejf-32" target="FaqCZbPYMvw0_bSV-Ejf-385">
          <mxGeometry relative="1" as="geometry">
            <mxPoint x="4880" y="60.5" as="targetPoint" />
          </mxGeometry>
        </mxCell>
        <mxCell id="FaqCZbPYMvw0_bSV-Ejf-32" value="查询process表 查询一天前的数据" style="rounded=0;whiteSpace=wrap;html=1;" vertex="1" parent="1">
          <mxGeometry x="4820" y="-70" width="120" height="60" as="geometry" />
        </mxCell>
        <mxCell id="FaqCZbPYMvw0_bSV-Ejf-33" value="结束" style="ellipse;whiteSpace=wrap;html=1;aspect=fixed;" vertex="1" parent="1">
          <mxGeometry x="4840" y="646.5" width="80" height="80" as="geometry" />
        </mxCell>
        <mxCell id="FaqCZbPYMvw0_bSV-Ejf-34" style="orthogonalLoop=1;jettySize=auto;html=1;entryX=0;entryY=0.5;entryDx=0;entryDy=0;dashed=1;curved=1;endArrow=none;endFill=0;exitX=1;exitY=1;exitDx=0;exitDy=0;exitPerimeter=0;" edge="1" parent="1" source="FaqCZbPYMvw0_bSV-Ejf-35" target="FaqCZbPYMvw0_bSV-Ejf-23">
          <mxGeometry relative="1" as="geometry">
            <mxPoint x="-2819.49" y="1684.5" as="sourcePoint" />
          </mxGeometry>
        </mxCell>
        <mxCell id="FaqCZbPYMvw0_bSV-Ejf-35" value="模型列表元素顺序对应归类顺序" style="shape=note;whiteSpace=wrap;html=1;backgroundOutline=1;darkOpacity=0.05;" vertex="1" parent="1">
          <mxGeometry x="-2910" y="1461.5" width="120" height="60" as="geometry" />
        </mxCell>
        <mxCell id="FaqCZbPYMvw0_bSV-Ejf-36" style="edgeStyle=orthogonalEdgeStyle;rounded=0;orthogonalLoop=1;jettySize=auto;html=1;exitX=0.5;exitY=1;exitDx=0;exitDy=0;entryX=0.5;entryY=0;entryDx=0;entryDy=0;" edge="1" parent="1" source="FaqCZbPYMvw0_bSV-Ejf-37" target="FaqCZbPYMvw0_bSV-Ejf-45">
          <mxGeometry relative="1" as="geometry">
            <mxPoint x="-5190" y="98.5" as="targetPoint" />
          </mxGeometry>
        </mxCell>
        <mxCell id="FaqCZbPYMvw0_bSV-Ejf-37" value="获取返回的文件信息" style="rounded=0;whiteSpace=wrap;html=1;" vertex="1" parent="1">
          <mxGeometry x="-5250" y="-61.5" width="120" height="60" as="geometry" />
        </mxCell>
        <mxCell id="FaqCZbPYMvw0_bSV-Ejf-38" style="edgeStyle=orthogonalEdgeStyle;rounded=0;orthogonalLoop=1;jettySize=auto;html=1;exitX=0.5;exitY=1;exitDx=0;exitDy=0;" edge="1" parent="1" source="FaqCZbPYMvw0_bSV-Ejf-39" target="FaqCZbPYMvw0_bSV-Ejf-8">
          <mxGeometry relative="1" as="geometry" />
        </mxCell>
        <mxCell id="FaqCZbPYMvw0_bSV-Ejf-39" value="根据fileId从MINIO中获取文件" style="rounded=0;whiteSpace=wrap;html=1;" vertex="1" parent="1">
          <mxGeometry x="-2680" y="87.5" width="120" height="60" as="geometry" />
        </mxCell>
        <mxCell id="FaqCZbPYMvw0_bSV-Ejf-40" style="edgeStyle=orthogonalEdgeStyle;rounded=0;orthogonalLoop=1;jettySize=auto;html=1;exitX=0.5;exitY=1;exitDx=0;exitDy=0;" edge="1" parent="1" source="FaqCZbPYMvw0_bSV-Ejf-41" target="FaqCZbPYMvw0_bSV-Ejf-43">
          <mxGeometry relative="1" as="geometry" />
        </mxCell>
        <mxCell id="FaqCZbPYMvw0_bSV-Ejf-41" value="进入根据模版新增模型页面" style="rounded=0;whiteSpace=wrap;html=1;" vertex="1" parent="1">
          <mxGeometry x="-5640" y="-225.5" width="120" height="60" as="geometry" />
        </mxCell>
        <mxCell id="FaqCZbPYMvw0_bSV-Ejf-42" style="edgeStyle=orthogonalEdgeStyle;rounded=0;orthogonalLoop=1;jettySize=auto;html=1;exitX=0.5;exitY=1;exitDx=0;exitDy=0;" edge="1" parent="1" source="FaqCZbPYMvw0_bSV-Ejf-43" target="FaqCZbPYMvw0_bSV-Ejf-402">
          <mxGeometry relative="1" as="geometry">
            <mxPoint x="-5580" y="249.5" as="targetPoint" />
          </mxGeometry>
        </mxCell>
        <mxCell id="FaqCZbPYMvw0_bSV-Ejf-43" value="请求后端接口、获取processId" style="rounded=0;whiteSpace=wrap;html=1;" vertex="1" parent="1">
          <mxGeometry x="-5640" y="-55.5" width="120" height="60" as="geometry" />
        </mxCell>
        <mxCell id="FaqCZbPYMvw0_bSV-Ejf-44" style="edgeStyle=orthogonalEdgeStyle;rounded=0;orthogonalLoop=1;jettySize=auto;html=1;exitX=0.5;exitY=1;exitDx=0;exitDy=0;" edge="1" parent="1" source="FaqCZbPYMvw0_bSV-Ejf-45" target="FaqCZbPYMvw0_bSV-Ejf-47">
          <mxGeometry relative="1" as="geometry" />
        </mxCell>
        <mxCell id="FaqCZbPYMvw0_bSV-Ejf-45" value="前端携带processId、按照数组顺序（文件归类）放入fileId请求后端接口" style="rounded=0;whiteSpace=wrap;html=1;" vertex="1" parent="1">
          <mxGeometry x="-5250" y="76.5" width="120" height="60" as="geometry" />
        </mxCell>
        <mxCell id="FaqCZbPYMvw0_bSV-Ejf-46" style="edgeStyle=orthogonalEdgeStyle;rounded=0;orthogonalLoop=1;jettySize=auto;html=1;exitX=0.5;exitY=1;exitDx=0;exitDy=0;entryX=0.5;entryY=0;entryDx=0;entryDy=0;" edge="1" parent="1" source="FaqCZbPYMvw0_bSV-Ejf-47" target="FaqCZbPYMvw0_bSV-Ejf-48">
          <mxGeometry relative="1" as="geometry">
            <mxPoint x="-5190" y="408.5" as="targetPoint" />
          </mxGeometry>
        </mxCell>
        <mxCell id="FaqCZbPYMvw0_bSV-Ejf-47" value="后端将数据覆盖process的template_file字段" style="rounded=0;whiteSpace=wrap;html=1;" vertex="1" parent="1">
          <mxGeometry x="-5250" y="238.5" width="120" height="60" as="geometry" />
        </mxCell>
        <mxCell id="FaqCZbPYMvw0_bSV-Ejf-48" value="结束" style="ellipse;whiteSpace=wrap;html=1;aspect=fixed;" vertex="1" parent="1">
          <mxGeometry x="-5230" y="428.5" width="80" height="80" as="geometry" />
        </mxCell>
        <mxCell id="FaqCZbPYMvw0_bSV-Ejf-50" style="rounded=0;orthogonalLoop=1;jettySize=auto;html=1;entryX=0;entryY=0;entryDx=260;entryDy=45;entryPerimeter=0;endArrow=none;endFill=0;exitX=0;exitY=0.5;exitDx=0;exitDy=0;" edge="1" parent="1" source="FaqCZbPYMvw0_bSV-Ejf-120" target="FaqCZbPYMvw0_bSV-Ejf-52">
          <mxGeometry relative="1" as="geometry">
            <mxPoint x="-3830" y="1049.5" as="sourcePoint" />
          </mxGeometry>
        </mxCell>
        <mxCell id="FaqCZbPYMvw0_bSV-Ejf-52" value="&lt;h3 style=&quot;box-sizing: border-box; break-after: avoid-page; break-inside: avoid; orphans: 4; margin-top: 1rem; margin-bottom: 1rem; position: relative; line-height: 1.43; cursor: text; color: rgb(51, 51, 51); font-family: &amp;quot;Open Sans&amp;quot;, &amp;quot;Clear Sans&amp;quot;, &amp;quot;Helvetica Neue&amp;quot;, Helvetica, Arial, &amp;quot;Segoe UI Emoji&amp;quot;, sans-serif; text-align: start;&quot; class=&quot;md-end-block md-heading md-focus&quot;&gt;&lt;font style=&quot;font-size: 12px;&quot;&gt;create_model_by_template_process&lt;/font&gt;以下&lt;br style=&quot;font-size: 12px;&quot;&gt;简称process&lt;/h3&gt;" style="shape=note;whiteSpace=wrap;html=1;backgroundOutline=1;darkOpacity=0.05;" vertex="1" parent="1">
          <mxGeometry x="-5920" y="189.5" width="260" height="60" as="geometry" />
        </mxCell>
        <mxCell id="FaqCZbPYMvw0_bSV-Ejf-53" style="edgeStyle=orthogonalEdgeStyle;rounded=0;orthogonalLoop=1;jettySize=auto;html=1;entryX=0.5;entryY=0;entryDx=0;entryDy=0;" edge="1" parent="1" source="FaqCZbPYMvw0_bSV-Ejf-54" target="FaqCZbPYMvw0_bSV-Ejf-82">
          <mxGeometry relative="1" as="geometry" />
        </mxCell>
        <mxCell id="FaqCZbPYMvw0_bSV-Ejf-54" value="导出失败数据" style="rounded=0;whiteSpace=wrap;html=1;" vertex="1" parent="1">
          <mxGeometry x="4420" y="-223" width="120" height="60" as="geometry" />
        </mxCell>
        <mxCell id="FaqCZbPYMvw0_bSV-Ejf-55" style="edgeStyle=orthogonalEdgeStyle;rounded=0;orthogonalLoop=1;jettySize=auto;html=1;" edge="1" parent="1" source="FaqCZbPYMvw0_bSV-Ejf-56" target="FaqCZbPYMvw0_bSV-Ejf-80">
          <mxGeometry relative="1" as="geometry">
            <mxPoint x="4480" y="152" as="targetPoint" />
          </mxGeometry>
        </mxCell>
        <mxCell id="FaqCZbPYMvw0_bSV-Ejf-56" value="获取服务器上的文件写入IO" style="rounded=0;whiteSpace=wrap;html=1;" vertex="1" parent="1">
          <mxGeometry x="4420" y="76.5" width="120" height="60" as="geometry" />
        </mxCell>
        <mxCell id="FaqCZbPYMvw0_bSV-Ejf-59" value="结束" style="ellipse;whiteSpace=wrap;html=1;aspect=fixed;" vertex="1" parent="1">
          <mxGeometry x="4440" y="397" width="80" height="80" as="geometry" />
        </mxCell>
        <mxCell id="FaqCZbPYMvw0_bSV-Ejf-65" value="结束" style="ellipse;whiteSpace=wrap;html=1;aspect=fixed;" vertex="1" parent="1">
          <mxGeometry x="5200" y="646.5" width="80" height="80" as="geometry" />
        </mxCell>
        <mxCell id="FaqCZbPYMvw0_bSV-Ejf-66" style="edgeStyle=orthogonalEdgeStyle;rounded=0;orthogonalLoop=1;jettySize=auto;html=1;exitX=0.5;exitY=1;exitDx=0;exitDy=0;entryX=0.5;entryY=0;entryDx=0;entryDy=0;" edge="1" parent="1" source="FaqCZbPYMvw0_bSV-Ejf-67" target="FaqCZbPYMvw0_bSV-Ejf-69">
          <mxGeometry relative="1" as="geometry" />
        </mxCell>
        <mxCell id="FaqCZbPYMvw0_bSV-Ejf-67" value="携带processId请求后端接口、清理相关数据" style="rounded=0;whiteSpace=wrap;html=1;" vertex="1" parent="1">
          <mxGeometry x="5180" y="-70" width="120" height="60" as="geometry" />
        </mxCell>
        <mxCell id="FaqCZbPYMvw0_bSV-Ejf-68" style="edgeStyle=orthogonalEdgeStyle;rounded=0;orthogonalLoop=1;jettySize=auto;html=1;exitX=0.5;exitY=1;exitDx=0;exitDy=0;" edge="1" parent="1" source="FaqCZbPYMvw0_bSV-Ejf-69">
          <mxGeometry relative="1" as="geometry">
            <mxPoint x="5240.333333333334" y="177" as="targetPoint" />
          </mxGeometry>
        </mxCell>
        <mxCell id="FaqCZbPYMvw0_bSV-Ejf-69" value="processId查询临时表数据" style="rounded=0;whiteSpace=wrap;html=1;" vertex="1" parent="1">
          <mxGeometry x="5180" y="57" width="120" height="60" as="geometry" />
        </mxCell>
        <mxCell id="FaqCZbPYMvw0_bSV-Ejf-70" style="edgeStyle=orthogonalEdgeStyle;rounded=0;orthogonalLoop=1;jettySize=auto;html=1;exitX=0.5;exitY=1;exitDx=0;exitDy=0;" edge="1" parent="1" source="FaqCZbPYMvw0_bSV-Ejf-71" target="FaqCZbPYMvw0_bSV-Ejf-73">
          <mxGeometry relative="1" as="geometry" />
        </mxCell>
        <mxCell id="FaqCZbPYMvw0_bSV-Ejf-71" value="根据modelName解锁模型、更新ci_model的lock_status" style="rounded=0;whiteSpace=wrap;html=1;fillColor=#ffe6cc;strokeColor=#d79b00;" vertex="1" parent="1">
          <mxGeometry x="5180" y="177" width="120" height="60" as="geometry" />
        </mxCell>
        <mxCell id="FaqCZbPYMvw0_bSV-Ejf-72" style="edgeStyle=orthogonalEdgeStyle;rounded=0;orthogonalLoop=1;jettySize=auto;html=1;" edge="1" parent="1" source="FaqCZbPYMvw0_bSV-Ejf-73" target="FaqCZbPYMvw0_bSV-Ejf-75">
          <mxGeometry relative="1" as="geometry">
            <mxPoint x="5240" y="417" as="targetPoint" />
          </mxGeometry>
        </mxCell>
        <mxCell id="FaqCZbPYMvw0_bSV-Ejf-73" value="根据fileId清理文件" style="rounded=0;whiteSpace=wrap;html=1;" vertex="1" parent="1">
          <mxGeometry x="5180" y="297" width="120" height="60" as="geometry" />
        </mxCell>
        <mxCell id="FaqCZbPYMvw0_bSV-Ejf-74" style="edgeStyle=orthogonalEdgeStyle;rounded=0;orthogonalLoop=1;jettySize=auto;html=1;exitX=0.5;exitY=1;exitDx=0;exitDy=0;" edge="1" parent="1" source="FaqCZbPYMvw0_bSV-Ejf-75" target="FaqCZbPYMvw0_bSV-Ejf-65">
          <mxGeometry relative="1" as="geometry">
            <mxPoint x="5240" y="570" as="targetPoint" />
          </mxGeometry>
        </mxCell>
        <mxCell id="FaqCZbPYMvw0_bSV-Ejf-75" value="删除process表数据" style="rounded=0;whiteSpace=wrap;html=1;" vertex="1" parent="1">
          <mxGeometry x="5180" y="428.5" width="120" height="60" as="geometry" />
        </mxCell>
        <mxCell id="FaqCZbPYMvw0_bSV-Ejf-76" style="edgeStyle=orthogonalEdgeStyle;rounded=0;orthogonalLoop=1;jettySize=auto;html=1;exitX=0.5;exitY=1;exitDx=0;exitDy=0;entryX=0.5;entryY=0;entryDx=0;entryDy=0;" edge="1" parent="1" source="FaqCZbPYMvw0_bSV-Ejf-77" target="FaqCZbPYMvw0_bSV-Ejf-67">
          <mxGeometry relative="1" as="geometry" />
        </mxCell>
        <mxCell id="FaqCZbPYMvw0_bSV-Ejf-77" value="解锁模型-退出流程" style="rounded=0;whiteSpace=wrap;html=1;" vertex="1" parent="1">
          <mxGeometry x="5180" y="-225" width="120" height="60" as="geometry" />
        </mxCell>
        <mxCell id="FaqCZbPYMvw0_bSV-Ejf-78" style="edgeStyle=orthogonalEdgeStyle;rounded=0;orthogonalLoop=1;jettySize=auto;html=1;exitX=0.5;exitY=1;exitDx=0;exitDy=0;" edge="1" parent="1" source="FaqCZbPYMvw0_bSV-Ejf-111" target="FaqCZbPYMvw0_bSV-Ejf-112">
          <mxGeometry relative="1" as="geometry">
            <mxPoint x="-2619.9473684210525" y="816.5" as="sourcePoint" />
            <mxPoint x="-2619.5" y="807.5" as="targetPoint" />
          </mxGeometry>
        </mxCell>
        <mxCell id="FaqCZbPYMvw0_bSV-Ejf-79" style="edgeStyle=orthogonalEdgeStyle;rounded=0;orthogonalLoop=1;jettySize=auto;html=1;entryX=0.5;entryY=0;entryDx=0;entryDy=0;" edge="1" parent="1" source="FaqCZbPYMvw0_bSV-Ejf-80" target="FaqCZbPYMvw0_bSV-Ejf-59">
          <mxGeometry relative="1" as="geometry">
            <mxPoint x="4480" y="417" as="targetPoint" />
          </mxGeometry>
        </mxCell>
        <mxCell id="FaqCZbPYMvw0_bSV-Ejf-80" value="写入压缩包" style="rounded=0;whiteSpace=wrap;html=1;" vertex="1" parent="1">
          <mxGeometry x="4420" y="222.5" width="120" height="60" as="geometry" />
        </mxCell>
        <mxCell id="FaqCZbPYMvw0_bSV-Ejf-81" style="edgeStyle=orthogonalEdgeStyle;rounded=0;orthogonalLoop=1;jettySize=auto;html=1;entryX=0.5;entryY=0;entryDx=0;entryDy=0;" edge="1" parent="1" source="FaqCZbPYMvw0_bSV-Ejf-82" target="FaqCZbPYMvw0_bSV-Ejf-56">
          <mxGeometry relative="1" as="geometry" />
        </mxCell>
        <mxCell id="FaqCZbPYMvw0_bSV-Ejf-82" value="创建压缩包" style="rounded=0;whiteSpace=wrap;html=1;" vertex="1" parent="1">
          <mxGeometry x="4420" y="-65" width="120" height="60" as="geometry" />
        </mxCell>
        <mxCell id="FaqCZbPYMvw0_bSV-Ejf-83" style="edgeStyle=orthogonalEdgeStyle;rounded=0;orthogonalLoop=1;jettySize=auto;html=1;" edge="1" parent="1" source="FaqCZbPYMvw0_bSV-Ejf-84" target="FaqCZbPYMvw0_bSV-Ejf-325">
          <mxGeometry relative="1" as="geometry" />
        </mxCell>
        <mxCell id="FaqCZbPYMvw0_bSV-Ejf-84" value="前端根据返回的模型列表数据，调用对应接口进行比较，是否存在相同" style="rounded=0;whiteSpace=wrap;html=1;" vertex="1" parent="1">
          <mxGeometry x="-1330" y="-70" width="280" height="60" as="geometry" />
        </mxCell>
        <mxCell id="FaqCZbPYMvw0_bSV-Ejf-85" style="edgeStyle=orthogonalEdgeStyle;rounded=0;orthogonalLoop=1;jettySize=auto;html=1;exitX=0.5;exitY=1;exitDx=0;exitDy=0;entryX=0.5;entryY=0;entryDx=0;entryDy=0;" edge="1" parent="1" source="FaqCZbPYMvw0_bSV-Ejf-89" target="FaqCZbPYMvw0_bSV-Ejf-91">
          <mxGeometry relative="1" as="geometry">
            <mxPoint x="-1189.6923076923076" y="536" as="targetPoint" />
          </mxGeometry>
        </mxCell>
        <mxCell id="FaqCZbPYMvw0_bSV-Ejf-86" value="是" style="edgeLabel;html=1;align=center;verticalAlign=middle;resizable=0;points=[];" vertex="1" connectable="0" parent="FaqCZbPYMvw0_bSV-Ejf-85">
          <mxGeometry x="-0.7751" y="-1" relative="1" as="geometry">
            <mxPoint as="offset" />
          </mxGeometry>
        </mxCell>
        <mxCell id="FaqCZbPYMvw0_bSV-Ejf-87" style="edgeStyle=orthogonalEdgeStyle;rounded=0;orthogonalLoop=1;jettySize=auto;html=1;entryX=0.5;entryY=0;entryDx=0;entryDy=0;" edge="1" parent="1" source="FaqCZbPYMvw0_bSV-Ejf-89" target="FaqCZbPYMvw0_bSV-Ejf-322">
          <mxGeometry relative="1" as="geometry">
            <mxPoint x="-986" y="536" as="targetPoint" />
          </mxGeometry>
        </mxCell>
        <mxCell id="FaqCZbPYMvw0_bSV-Ejf-88" value="否" style="edgeLabel;html=1;align=center;verticalAlign=middle;resizable=0;points=[];" vertex="1" connectable="0" parent="FaqCZbPYMvw0_bSV-Ejf-87">
          <mxGeometry x="-0.1916" y="-1" relative="1" as="geometry">
            <mxPoint x="-115" y="-1" as="offset" />
          </mxGeometry>
        </mxCell>
        <mxCell id="FaqCZbPYMvw0_bSV-Ejf-89" value="是否存在相同" style="rhombus;whiteSpace=wrap;html=1;" vertex="1" parent="1">
          <mxGeometry x="-1230" y="326" width="80" height="80" as="geometry" />
        </mxCell>
        <mxCell id="FaqCZbPYMvw0_bSV-Ejf-90" style="edgeStyle=orthogonalEdgeStyle;rounded=0;orthogonalLoop=1;jettySize=auto;html=1;" edge="1" parent="1" source="FaqCZbPYMvw0_bSV-Ejf-91" target="FaqCZbPYMvw0_bSV-Ejf-323">
          <mxGeometry relative="1" as="geometry">
            <Array as="points">
              <mxPoint x="-1190" y="669" />
              <mxPoint x="-1110" y="669" />
            </Array>
          </mxGeometry>
        </mxCell>
        <mxCell id="FaqCZbPYMvw0_bSV-Ejf-91" value="赋值感叹号" style="rounded=0;whiteSpace=wrap;html=1;" vertex="1" parent="1">
          <mxGeometry x="-1250" y="546" width="120" height="60" as="geometry" />
        </mxCell>
        <mxCell id="FaqCZbPYMvw0_bSV-Ejf-92" value="结束" style="ellipse;whiteSpace=wrap;html=1;aspect=fixed;" vertex="1" parent="1">
          <mxGeometry x="-5620" y="581.5" width="80" height="80" as="geometry" />
        </mxCell>
        <mxCell id="FaqCZbPYMvw0_bSV-Ejf-93" style="edgeStyle=orthogonalEdgeStyle;rounded=0;orthogonalLoop=1;jettySize=auto;html=1;exitX=0.5;exitY=1;exitDx=0;exitDy=0;" edge="1" parent="1" source="FaqCZbPYMvw0_bSV-Ejf-94" target="FaqCZbPYMvw0_bSV-Ejf-96">
          <mxGeometry relative="1" as="geometry">
            <mxPoint x="-3980" y="-55.5" as="targetPoint" />
          </mxGeometry>
        </mxCell>
        <mxCell id="FaqCZbPYMvw0_bSV-Ejf-94" value="异步执行【上传文件】-解析sheet数据" style="rounded=0;whiteSpace=wrap;html=1;" vertex="1" parent="1">
          <mxGeometry x="-4040" y="-225.5" width="120" height="60" as="geometry" />
        </mxCell>
        <mxCell id="FaqCZbPYMvw0_bSV-Ejf-95" style="edgeStyle=orthogonalEdgeStyle;rounded=0;orthogonalLoop=1;jettySize=auto;html=1;" edge="1" parent="1" source="FaqCZbPYMvw0_bSV-Ejf-96" target="FaqCZbPYMvw0_bSV-Ejf-438">
          <mxGeometry relative="1" as="geometry">
            <mxPoint x="-3980" y="109.5" as="targetPoint" />
          </mxGeometry>
        </mxCell>
        <mxCell id="FaqCZbPYMvw0_bSV-Ejf-96" value="调用文件服务接口下载文件、解析sheet页、获取文件名称" style="rounded=0;whiteSpace=wrap;html=1;" vertex="1" parent="1">
          <mxGeometry x="-4040" y="-48.5" width="120" height="60" as="geometry" />
        </mxCell>
        <mxCell id="FaqCZbPYMvw0_bSV-Ejf-97" style="edgeStyle=orthogonalEdgeStyle;rounded=0;orthogonalLoop=1;jettySize=auto;html=1;exitX=0.5;exitY=1;exitDx=0;exitDy=0;" edge="1" parent="1" source="FaqCZbPYMvw0_bSV-Ejf-428" target="FaqCZbPYMvw0_bSV-Ejf-104">
          <mxGeometry relative="1" as="geometry">
            <mxPoint x="-3980" y="354.5" as="targetPoint" />
            <mxPoint x="-3980" y="169.5" as="sourcePoint" />
          </mxGeometry>
        </mxCell>
        <mxCell id="FaqCZbPYMvw0_bSV-Ejf-99" style="edgeStyle=orthogonalEdgeStyle;rounded=0;orthogonalLoop=1;jettySize=auto;html=1;" edge="1" parent="1" source="FaqCZbPYMvw0_bSV-Ejf-100" target="FaqCZbPYMvw0_bSV-Ejf-102">
          <mxGeometry relative="1" as="geometry" />
        </mxCell>
        <mxCell id="FaqCZbPYMvw0_bSV-Ejf-100" value="提交processId以及修改后的模型、模型字段" style="rounded=0;whiteSpace=wrap;html=1;" vertex="1" parent="1">
          <mxGeometry x="-26" y="-86" width="120" height="60" as="geometry" />
        </mxCell>
        <mxCell id="FaqCZbPYMvw0_bSV-Ejf-101" style="edgeStyle=orthogonalEdgeStyle;rounded=0;orthogonalLoop=1;jettySize=auto;html=1;exitX=0.5;exitY=1;exitDx=0;exitDy=0;" edge="1" parent="1" source="FaqCZbPYMvw0_bSV-Ejf-102" target="FaqCZbPYMvw0_bSV-Ejf-155">
          <mxGeometry relative="1" as="geometry" />
        </mxCell>
        <mxCell id="FaqCZbPYMvw0_bSV-Ejf-102" value="对比库表与传参数据" style="rounded=0;whiteSpace=wrap;html=1;" vertex="1" parent="1">
          <mxGeometry x="-26" y="39" width="120" height="60" as="geometry" />
        </mxCell>
        <mxCell id="FaqCZbPYMvw0_bSV-Ejf-103" style="edgeStyle=orthogonalEdgeStyle;rounded=0;orthogonalLoop=1;jettySize=auto;html=1;exitX=0.5;exitY=1;exitDx=0;exitDy=0;" edge="1" parent="1" source="FaqCZbPYMvw0_bSV-Ejf-104" target="FaqCZbPYMvw0_bSV-Ejf-105">
          <mxGeometry relative="1" as="geometry" />
        </mxCell>
        <mxCell id="FaqCZbPYMvw0_bSV-Ejf-104" value="返回前端" style="rounded=0;whiteSpace=wrap;html=1;" vertex="1" parent="1">
          <mxGeometry x="-4040" y="313.5" width="120" height="60" as="geometry" />
        </mxCell>
        <mxCell id="FaqCZbPYMvw0_bSV-Ejf-105" value="结束" style="ellipse;whiteSpace=wrap;html=1;aspect=fixed;" vertex="1" parent="1">
          <mxGeometry x="-4020" y="445.5" width="80" height="80" as="geometry" />
        </mxCell>
        <mxCell id="FaqCZbPYMvw0_bSV-Ejf-106" style="edgeStyle=orthogonalEdgeStyle;rounded=0;orthogonalLoop=1;jettySize=auto;html=1;exitX=0.5;exitY=1;exitDx=0;exitDy=0;" edge="1" parent="1" source="FaqCZbPYMvw0_bSV-Ejf-107" target="FaqCZbPYMvw0_bSV-Ejf-118">
          <mxGeometry relative="1" as="geometry">
            <mxPoint x="-2619.5263157894733" y="577.5" as="targetPoint" />
          </mxGeometry>
        </mxCell>
        <mxCell id="FaqCZbPYMvw0_bSV-Ejf-107" value="解析第一个文件名称为模型名称、唯一标识、校验redis中租户下存放的模型信息赋值是否存在" style="rounded=0;whiteSpace=wrap;html=1;" vertex="1" parent="1">
          <mxGeometry x="-2679.5" y="287.5" width="120" height="60" as="geometry" />
        </mxCell>
        <mxCell id="FaqCZbPYMvw0_bSV-Ejf-108" style="edgeStyle=orthogonalEdgeStyle;rounded=0;orthogonalLoop=1;jettySize=auto;html=1;exitX=0.5;exitY=1;exitDx=0;exitDy=0;" edge="1" parent="1" source="FaqCZbPYMvw0_bSV-Ejf-109" target="FaqCZbPYMvw0_bSV-Ejf-110">
          <mxGeometry relative="1" as="geometry" />
        </mxCell>
        <mxCell id="FaqCZbPYMvw0_bSV-Ejf-109" value="根据字段名行生成模型字段名称、唯一标识" style="rounded=0;whiteSpace=wrap;html=1;" vertex="1" parent="1">
          <mxGeometry x="-2679.5" y="477.5" width="120" height="60" as="geometry" />
        </mxCell>
        <mxCell id="FaqCZbPYMvw0_bSV-Ejf-110" value="根据配置进行抽样，循环列数据" style="rounded=0;whiteSpace=wrap;html=1;" vertex="1" parent="1">
          <mxGeometry x="-2680" y="586.5" width="120" height="60" as="geometry" />
        </mxCell>
        <mxCell id="FaqCZbPYMvw0_bSV-Ejf-111" value="推断数据类型" style="rounded=0;whiteSpace=wrap;html=1;" vertex="1" parent="1">
          <mxGeometry x="-2680.49" y="739.5" width="120" height="60" as="geometry" />
        </mxCell>
        <mxCell id="FaqCZbPYMvw0_bSV-Ejf-112" value="记录模型字段属性" style="rounded=0;whiteSpace=wrap;html=1;" vertex="1" parent="1">
          <mxGeometry x="-2679.5" y="859.5" width="120" height="60" as="geometry" />
        </mxCell>
        <mxCell id="FaqCZbPYMvw0_bSV-Ejf-115" style="edgeStyle=orthogonalEdgeStyle;rounded=0;orthogonalLoop=1;jettySize=auto;html=1;exitX=0.5;exitY=1;exitDx=0;exitDy=0;entryX=0.5;entryY=0;entryDx=0;entryDy=0;" edge="1" parent="1" source="FaqCZbPYMvw0_bSV-Ejf-116" target="FaqCZbPYMvw0_bSV-Ejf-442">
          <mxGeometry relative="1" as="geometry">
            <mxPoint x="-2619.49" y="1092.0521573816154" as="targetPoint" />
          </mxGeometry>
        </mxCell>
        <mxCell id="FaqCZbPYMvw0_bSV-Ejf-116" value="写入process的model字段中property属性" style="rounded=0;whiteSpace=wrap;html=1;" vertex="1" parent="1">
          <mxGeometry x="-2680" y="987.5" width="120" height="60" as="geometry" />
        </mxCell>
        <mxCell id="FaqCZbPYMvw0_bSV-Ejf-117" style="edgeStyle=orthogonalEdgeStyle;rounded=0;orthogonalLoop=1;jettySize=auto;html=1;exitX=0.5;exitY=1;exitDx=0;exitDy=0;" edge="1" parent="1" source="FaqCZbPYMvw0_bSV-Ejf-118" target="FaqCZbPYMvw0_bSV-Ejf-109">
          <mxGeometry relative="1" as="geometry" />
        </mxCell>
        <mxCell id="FaqCZbPYMvw0_bSV-Ejf-118" value="写入process的model字段" style="rounded=0;whiteSpace=wrap;html=1;" vertex="1" parent="1">
          <mxGeometry x="-2680" y="384.5" width="120" height="60" as="geometry" />
        </mxCell>
        <mxCell id="FaqCZbPYMvw0_bSV-Ejf-119" style="edgeStyle=orthogonalEdgeStyle;rounded=0;orthogonalLoop=1;jettySize=auto;html=1;exitX=0.5;exitY=1;exitDx=0;exitDy=0;" edge="1" parent="1" source="FaqCZbPYMvw0_bSV-Ejf-120" target="FaqCZbPYMvw0_bSV-Ejf-122">
          <mxGeometry relative="1" as="geometry" />
        </mxCell>
        <mxCell id="FaqCZbPYMvw0_bSV-Ejf-120" value="新增process表数据" style="rounded=0;whiteSpace=wrap;html=1;" vertex="1" parent="1">
          <mxGeometry x="-5640" y="239.5" width="120" height="60" as="geometry" />
        </mxCell>
        <mxCell id="FaqCZbPYMvw0_bSV-Ejf-121" style="edgeStyle=orthogonalEdgeStyle;rounded=0;orthogonalLoop=1;jettySize=auto;html=1;" edge="1" parent="1" source="FaqCZbPYMvw0_bSV-Ejf-122" target="FaqCZbPYMvw0_bSV-Ejf-92">
          <mxGeometry relative="1" as="geometry" />
        </mxCell>
        <mxCell id="FaqCZbPYMvw0_bSV-Ejf-122" value="返回processId" style="rounded=0;whiteSpace=wrap;html=1;" vertex="1" parent="1">
          <mxGeometry x="-5640" y="409.5" width="120" height="60" as="geometry" />
        </mxCell>
        <mxCell id="FaqCZbPYMvw0_bSV-Ejf-123" style="edgeStyle=orthogonalEdgeStyle;rounded=0;orthogonalLoop=1;jettySize=auto;html=1;exitX=0.5;exitY=1;exitDx=0;exitDy=0;" edge="1" parent="1" source="FaqCZbPYMvw0_bSV-Ejf-124" target="FaqCZbPYMvw0_bSV-Ejf-131">
          <mxGeometry relative="1" as="geometry">
            <mxPoint x="-4810" y="-65.5" as="targetPoint" />
          </mxGeometry>
        </mxCell>
        <mxCell id="FaqCZbPYMvw0_bSV-Ejf-124" value="【上传文件】点击下一步-校验完整数据" style="rounded=0;whiteSpace=wrap;html=1;" vertex="1" parent="1">
          <mxGeometry x="-4870" y="-225.5" width="120" height="60" as="geometry" />
        </mxCell>
        <mxCell id="FaqCZbPYMvw0_bSV-Ejf-125" style="edgeStyle=orthogonalEdgeStyle;rounded=0;orthogonalLoop=1;jettySize=auto;html=1;exitX=0.5;exitY=1;exitDx=0;exitDy=0;" edge="1" parent="1" source="FaqCZbPYMvw0_bSV-Ejf-129" target="FaqCZbPYMvw0_bSV-Ejf-133">
          <mxGeometry relative="1" as="geometry" />
        </mxCell>
        <mxCell id="FaqCZbPYMvw0_bSV-Ejf-126" value="是" style="edgeLabel;html=1;align=center;verticalAlign=middle;resizable=0;points=[];" vertex="1" connectable="0" parent="FaqCZbPYMvw0_bSV-Ejf-125">
          <mxGeometry x="-0.7545" y="-2" relative="1" as="geometry">
            <mxPoint as="offset" />
          </mxGeometry>
        </mxCell>
        <mxCell id="FaqCZbPYMvw0_bSV-Ejf-127" style="edgeStyle=orthogonalEdgeStyle;rounded=0;orthogonalLoop=1;jettySize=auto;html=1;exitX=1;exitY=0.5;exitDx=0;exitDy=0;" edge="1" parent="1" source="FaqCZbPYMvw0_bSV-Ejf-129" target="FaqCZbPYMvw0_bSV-Ejf-478">
          <mxGeometry relative="1" as="geometry" />
        </mxCell>
        <mxCell id="FaqCZbPYMvw0_bSV-Ejf-128" value="否" style="edgeLabel;html=1;align=center;verticalAlign=middle;resizable=0;points=[];" vertex="1" connectable="0" parent="FaqCZbPYMvw0_bSV-Ejf-127">
          <mxGeometry x="-0.6521" y="1" relative="1" as="geometry">
            <mxPoint as="offset" />
          </mxGeometry>
        </mxCell>
        <mxCell id="FaqCZbPYMvw0_bSV-Ejf-129" value="是否相同" style="rhombus;whiteSpace=wrap;html=1;" vertex="1" parent="1">
          <mxGeometry x="-4850" y="212.5" width="80" height="80" as="geometry" />
        </mxCell>
        <mxCell id="FaqCZbPYMvw0_bSV-Ejf-130" style="edgeStyle=orthogonalEdgeStyle;rounded=0;orthogonalLoop=1;jettySize=auto;html=1;exitX=0.5;exitY=1;exitDx=0;exitDy=0;" edge="1" parent="1" source="FaqCZbPYMvw0_bSV-Ejf-131" target="FaqCZbPYMvw0_bSV-Ejf-406">
          <mxGeometry relative="1" as="geometry" />
        </mxCell>
        <mxCell id="FaqCZbPYMvw0_bSV-Ejf-131" value="查询、校验process" style="rounded=0;whiteSpace=wrap;html=1;" vertex="1" parent="1">
          <mxGeometry x="-4870" y="-81.5" width="120" height="60" as="geometry" />
        </mxCell>
        <mxCell id="FaqCZbPYMvw0_bSV-Ejf-132" style="edgeStyle=orthogonalEdgeStyle;rounded=0;orthogonalLoop=1;jettySize=auto;html=1;exitX=0.5;exitY=1;exitDx=0;exitDy=0;" edge="1" parent="1" source="FaqCZbPYMvw0_bSV-Ejf-133" target="FaqCZbPYMvw0_bSV-Ejf-136">
          <mxGeometry relative="1" as="geometry">
            <mxPoint x="-4810" y="633.5" as="targetPoint" />
          </mxGeometry>
        </mxCell>
        <mxCell id="FaqCZbPYMvw0_bSV-Ejf-133" value="开启线程，异步处理读取excel的sheet数据" style="rounded=0;whiteSpace=wrap;html=1;" vertex="1" parent="1">
          <mxGeometry x="-4870" y="458.5" width="120" height="60" as="geometry" />
        </mxCell>
        <mxCell id="FaqCZbPYMvw0_bSV-Ejf-134" style="edgeStyle=orthogonalEdgeStyle;rounded=0;orthogonalLoop=1;jettySize=auto;html=1;exitX=0.5;exitY=1;exitDx=0;exitDy=0;entryX=1;entryY=0.5;entryDx=0;entryDy=0;" edge="1" parent="1" source="FaqCZbPYMvw0_bSV-Ejf-135" target="FaqCZbPYMvw0_bSV-Ejf-133">
          <mxGeometry relative="1" as="geometry" />
        </mxCell>
        <mxCell id="FaqCZbPYMvw0_bSV-Ejf-135" value="清除后续步骤的数据" style="rounded=0;whiteSpace=wrap;html=1;" vertex="1" parent="1">
          <mxGeometry x="-4700" y="401.5" width="120" height="60" as="geometry" />
        </mxCell>
        <mxCell id="FaqCZbPYMvw0_bSV-Ejf-136" value="结束" style="ellipse;whiteSpace=wrap;html=1;aspect=fixed;" vertex="1" parent="1">
          <mxGeometry x="-4850" y="741.5" width="80" height="80" as="geometry" />
        </mxCell>
        <mxCell id="FaqCZbPYMvw0_bSV-Ejf-147" style="edgeStyle=orthogonalEdgeStyle;rounded=0;orthogonalLoop=1;jettySize=auto;html=1;exitX=0.5;exitY=1;exitDx=0;exitDy=0;" edge="1" parent="1" source="FaqCZbPYMvw0_bSV-Ejf-148" target="FaqCZbPYMvw0_bSV-Ejf-100">
          <mxGeometry relative="1" as="geometry" />
        </mxCell>
        <mxCell id="FaqCZbPYMvw0_bSV-Ejf-148" value="【设置模型字段】" style="rounded=0;whiteSpace=wrap;html=1;" vertex="1" parent="1">
          <mxGeometry x="-26" y="-226" width="120" height="60" as="geometry" />
        </mxCell>
        <mxCell id="FaqCZbPYMvw0_bSV-Ejf-149" style="edgeStyle=orthogonalEdgeStyle;rounded=0;orthogonalLoop=1;jettySize=auto;html=1;entryX=0.5;entryY=0;entryDx=0;entryDy=0;" edge="1" parent="1" source="FaqCZbPYMvw0_bSV-Ejf-150" target="FaqCZbPYMvw0_bSV-Ejf-84">
          <mxGeometry relative="1" as="geometry" />
        </mxCell>
        <mxCell id="FaqCZbPYMvw0_bSV-Ejf-150" value="【设置模型字段】-判断模型唯一标识、模型名称是否合法" style="rounded=0;whiteSpace=wrap;html=1;" vertex="1" parent="1">
          <mxGeometry x="-1307" y="-228" width="234" height="60" as="geometry" />
        </mxCell>
        <mxCell id="FaqCZbPYMvw0_bSV-Ejf-151" style="edgeStyle=orthogonalEdgeStyle;rounded=0;orthogonalLoop=1;jettySize=auto;html=1;exitX=0.5;exitY=1;exitDx=0;exitDy=0;entryX=0.5;entryY=0;entryDx=0;entryDy=0;" edge="1" parent="1" source="FaqCZbPYMvw0_bSV-Ejf-155" target="FaqCZbPYMvw0_bSV-Ejf-159">
          <mxGeometry relative="1" as="geometry">
            <mxPoint x="34.26315789473665" y="339" as="targetPoint" />
          </mxGeometry>
        </mxCell>
        <mxCell id="FaqCZbPYMvw0_bSV-Ejf-152" value="是" style="edgeLabel;html=1;align=center;verticalAlign=middle;resizable=0;points=[];" vertex="1" connectable="0" parent="FaqCZbPYMvw0_bSV-Ejf-151">
          <mxGeometry x="-0.8012" relative="1" as="geometry">
            <mxPoint as="offset" />
          </mxGeometry>
        </mxCell>
        <mxCell id="FaqCZbPYMvw0_bSV-Ejf-153" style="edgeStyle=orthogonalEdgeStyle;rounded=0;orthogonalLoop=1;jettySize=auto;html=1;exitX=1;exitY=0.5;exitDx=0;exitDy=0;" edge="1" parent="1" source="FaqCZbPYMvw0_bSV-Ejf-155" target="FaqCZbPYMvw0_bSV-Ejf-157">
          <mxGeometry relative="1" as="geometry" />
        </mxCell>
        <mxCell id="FaqCZbPYMvw0_bSV-Ejf-154" value="否" style="edgeLabel;html=1;align=center;verticalAlign=middle;resizable=0;points=[];" vertex="1" connectable="0" parent="FaqCZbPYMvw0_bSV-Ejf-153">
          <mxGeometry x="-0.6315" relative="1" as="geometry">
            <mxPoint as="offset" />
          </mxGeometry>
        </mxCell>
        <mxCell id="FaqCZbPYMvw0_bSV-Ejf-155" value="是否相等或库表数据为空" style="rhombus;whiteSpace=wrap;html=1;" vertex="1" parent="1">
          <mxGeometry x="-6" y="146" width="80" height="80" as="geometry" />
        </mxCell>
        <mxCell id="FaqCZbPYMvw0_bSV-Ejf-156" style="edgeStyle=orthogonalEdgeStyle;rounded=0;orthogonalLoop=1;jettySize=auto;html=1;exitX=0.5;exitY=1;exitDx=0;exitDy=0;entryX=1;entryY=0.5;entryDx=0;entryDy=0;" edge="1" parent="1" source="FaqCZbPYMvw0_bSV-Ejf-157" target="FaqCZbPYMvw0_bSV-Ejf-159">
          <mxGeometry relative="1" as="geometry">
            <mxPoint x="54" y="369" as="targetPoint" />
          </mxGeometry>
        </mxCell>
        <mxCell id="FaqCZbPYMvw0_bSV-Ejf-157" value="清除后续步骤表数据" style="rounded=0;whiteSpace=wrap;html=1;" vertex="1" parent="1">
          <mxGeometry x="134" y="241" width="120" height="60" as="geometry" />
        </mxCell>
        <mxCell id="FaqCZbPYMvw0_bSV-Ejf-158" style="edgeStyle=orthogonalEdgeStyle;rounded=0;orthogonalLoop=1;jettySize=auto;html=1;exitX=0.5;exitY=1;exitDx=0;exitDy=0;" edge="1" parent="1" source="FaqCZbPYMvw0_bSV-Ejf-159" target="FaqCZbPYMvw0_bSV-Ejf-162">
          <mxGeometry relative="1" as="geometry">
            <mxPoint x="34" y="597" as="targetPoint" />
          </mxGeometry>
        </mxCell>
        <mxCell id="FaqCZbPYMvw0_bSV-Ejf-159" value="更新process的&lt;br&gt;model.type、model.sub_type、model.model_list、&lt;br&gt;model.model_list.property" style="rounded=0;whiteSpace=wrap;html=1;" vertex="1" parent="1">
          <mxGeometry x="-26" y="399" width="120" height="81" as="geometry" />
        </mxCell>
        <mxCell id="FaqCZbPYMvw0_bSV-Ejf-162" value="结束" style="ellipse;whiteSpace=wrap;html=1;aspect=fixed;direction=south;" vertex="1" parent="1">
          <mxGeometry x="-6" y="606" width="80" height="80" as="geometry" />
        </mxCell>
        <mxCell id="FaqCZbPYMvw0_bSV-Ejf-163" style="edgeStyle=orthogonalEdgeStyle;rounded=0;orthogonalLoop=1;jettySize=auto;html=1;" edge="1" parent="1" source="FaqCZbPYMvw0_bSV-Ejf-164" target="FaqCZbPYMvw0_bSV-Ejf-166">
          <mxGeometry relative="1" as="geometry" />
        </mxCell>
        <mxCell id="FaqCZbPYMvw0_bSV-Ejf-164" value="【设置模型配置】" style="rounded=0;whiteSpace=wrap;html=1;" vertex="1" parent="1">
          <mxGeometry x="426" y="-228" width="120" height="60" as="geometry" />
        </mxCell>
        <mxCell id="FaqCZbPYMvw0_bSV-Ejf-165" style="edgeStyle=orthogonalEdgeStyle;rounded=0;orthogonalLoop=1;jettySize=auto;html=1;exitX=0.5;exitY=1;exitDx=0;exitDy=0;" edge="1" parent="1" source="FaqCZbPYMvw0_bSV-Ejf-166" target="FaqCZbPYMvw0_bSV-Ejf-177">
          <mxGeometry relative="1" as="geometry">
            <mxPoint x="486" y="50" as="targetPoint" />
          </mxGeometry>
        </mxCell>
        <mxCell id="FaqCZbPYMvw0_bSV-Ejf-166" value="提交processId、唯一约束、字段分组、其他设置、关联类型、模型关联、自动发现规则" style="rounded=0;whiteSpace=wrap;html=1;" vertex="1" parent="1">
          <mxGeometry x="426" y="-85" width="120" height="60" as="geometry" />
        </mxCell>
        <mxCell id="FaqCZbPYMvw0_bSV-Ejf-167" style="edgeStyle=orthogonalEdgeStyle;rounded=0;orthogonalLoop=1;jettySize=auto;html=1;exitX=1;exitY=0.5;exitDx=0;exitDy=0;" edge="1" parent="1" source="FaqCZbPYMvw0_bSV-Ejf-171" target="FaqCZbPYMvw0_bSV-Ejf-173">
          <mxGeometry relative="1" as="geometry" />
        </mxCell>
        <mxCell id="FaqCZbPYMvw0_bSV-Ejf-168" value="否" style="edgeLabel;html=1;align=center;verticalAlign=middle;resizable=0;points=[];" vertex="1" connectable="0" parent="FaqCZbPYMvw0_bSV-Ejf-167">
          <mxGeometry x="-0.7709" y="1" relative="1" as="geometry">
            <mxPoint as="offset" />
          </mxGeometry>
        </mxCell>
        <mxCell id="FaqCZbPYMvw0_bSV-Ejf-169" style="edgeStyle=orthogonalEdgeStyle;rounded=0;orthogonalLoop=1;jettySize=auto;html=1;exitX=0.5;exitY=1;exitDx=0;exitDy=0;" edge="1" parent="1" source="FaqCZbPYMvw0_bSV-Ejf-171" target="FaqCZbPYMvw0_bSV-Ejf-175">
          <mxGeometry relative="1" as="geometry">
            <mxPoint x="485.19047619047615" y="398" as="targetPoint" />
          </mxGeometry>
        </mxCell>
        <mxCell id="FaqCZbPYMvw0_bSV-Ejf-170" value="是" style="edgeLabel;html=1;align=center;verticalAlign=middle;resizable=0;points=[];" vertex="1" connectable="0" parent="FaqCZbPYMvw0_bSV-Ejf-169">
          <mxGeometry x="-0.7597" y="2" relative="1" as="geometry">
            <mxPoint as="offset" />
          </mxGeometry>
        </mxCell>
        <mxCell id="FaqCZbPYMvw0_bSV-Ejf-171" value="是否相等或库表数据为空" style="rhombus;whiteSpace=wrap;html=1;" vertex="1" parent="1">
          <mxGeometry x="446" y="170" width="80" height="80" as="geometry" />
        </mxCell>
        <mxCell id="FaqCZbPYMvw0_bSV-Ejf-172" style="edgeStyle=orthogonalEdgeStyle;rounded=0;orthogonalLoop=1;jettySize=auto;html=1;exitX=0.5;exitY=1;exitDx=0;exitDy=0;entryX=1;entryY=0.5;entryDx=0;entryDy=0;" edge="1" parent="1" source="FaqCZbPYMvw0_bSV-Ejf-173" target="FaqCZbPYMvw0_bSV-Ejf-175">
          <mxGeometry relative="1" as="geometry" />
        </mxCell>
        <mxCell id="FaqCZbPYMvw0_bSV-Ejf-173" value="清除后续步骤表数据" style="rounded=0;whiteSpace=wrap;html=1;" vertex="1" parent="1">
          <mxGeometry x="584" y="265" width="120" height="60" as="geometry" />
        </mxCell>
        <mxCell id="FaqCZbPYMvw0_bSV-Ejf-174" style="edgeStyle=orthogonalEdgeStyle;rounded=0;orthogonalLoop=1;jettySize=auto;html=1;exitX=0.5;exitY=1;exitDx=0;exitDy=0;" edge="1" parent="1" source="FaqCZbPYMvw0_bSV-Ejf-175" target="FaqCZbPYMvw0_bSV-Ejf-179">
          <mxGeometry relative="1" as="geometry">
            <mxPoint x="486.0000000000009" y="515" as="targetPoint" />
          </mxGeometry>
        </mxCell>
        <mxCell id="FaqCZbPYMvw0_bSV-Ejf-175" value="更新更新process的&lt;br&gt;model.model_list" style="rounded=0;whiteSpace=wrap;html=1;" vertex="1" parent="1">
          <mxGeometry x="426" y="373.5" width="120" height="60" as="geometry" />
        </mxCell>
        <mxCell id="FaqCZbPYMvw0_bSV-Ejf-176" style="edgeStyle=orthogonalEdgeStyle;rounded=0;orthogonalLoop=1;jettySize=auto;html=1;exitX=0.5;exitY=1;exitDx=0;exitDy=0;" edge="1" parent="1" source="FaqCZbPYMvw0_bSV-Ejf-177" target="FaqCZbPYMvw0_bSV-Ejf-171">
          <mxGeometry relative="1" as="geometry" />
        </mxCell>
        <mxCell id="FaqCZbPYMvw0_bSV-Ejf-177" value="对比库表与传参数据" style="rounded=0;whiteSpace=wrap;html=1;" vertex="1" parent="1">
          <mxGeometry x="426" y="40" width="120" height="60" as="geometry" />
        </mxCell>
        <mxCell id="FaqCZbPYMvw0_bSV-Ejf-178" style="edgeStyle=orthogonalEdgeStyle;rounded=0;orthogonalLoop=1;jettySize=auto;html=1;exitX=0.5;exitY=1;exitDx=0;exitDy=0;" edge="1" parent="1" source="FaqCZbPYMvw0_bSV-Ejf-179" target="FaqCZbPYMvw0_bSV-Ejf-181">
          <mxGeometry relative="1" as="geometry">
            <mxPoint x="485.2380952380954" y="820" as="targetPoint" />
          </mxGeometry>
        </mxCell>
        <mxCell id="FaqCZbPYMvw0_bSV-Ejf-179" value="&lt;div style=&quot;&quot;&gt;唯一约束-新增&lt;span style=&quot;background-color: initial; color: rgb(51, 51, 51);&quot;&gt;model.model_list.&lt;/span&gt;&lt;span style=&quot;background-color: initial;&quot;&gt;&lt;font color=&quot;#333333&quot;&gt;unique_rules&lt;/font&gt;&lt;/span&gt;&lt;/div&gt;" style="rounded=0;whiteSpace=wrap;html=1;align=center;" vertex="1" parent="1">
          <mxGeometry x="426" y="490" width="120" height="60" as="geometry" />
        </mxCell>
        <mxCell id="FaqCZbPYMvw0_bSV-Ejf-180" style="edgeStyle=orthogonalEdgeStyle;rounded=0;orthogonalLoop=1;jettySize=auto;html=1;exitX=0.5;exitY=1;exitDx=0;exitDy=0;" edge="1" parent="1" source="FaqCZbPYMvw0_bSV-Ejf-181" target="FaqCZbPYMvw0_bSV-Ejf-345">
          <mxGeometry relative="1" as="geometry" />
        </mxCell>
        <mxCell id="FaqCZbPYMvw0_bSV-Ejf-181" value="&lt;font style=&quot;font-size: 12px;&quot;&gt;字段分组-新增&lt;span style=&quot;color: rgb(51, 51, 51); text-align: start; background-color: initial;&quot;&gt;model.modle_list.property_group&lt;/span&gt;&lt;br&gt;&lt;/font&gt;" style="rounded=0;whiteSpace=wrap;html=1;" vertex="1" parent="1">
          <mxGeometry x="426" y="606" width="120" height="60" as="geometry" />
        </mxCell>
        <mxCell id="FaqCZbPYMvw0_bSV-Ejf-182" value="" style="edgeStyle=orthogonalEdgeStyle;rounded=0;orthogonalLoop=1;jettySize=auto;html=1;" edge="1" parent="1" source="FaqCZbPYMvw0_bSV-Ejf-183" target="FaqCZbPYMvw0_bSV-Ejf-185">
          <mxGeometry relative="1" as="geometry" />
        </mxCell>
        <mxCell id="FaqCZbPYMvw0_bSV-Ejf-183" value="&lt;div style=&quot;&quot;&gt;模型关联类型-新增&lt;span style=&quot;background-color: initial; color: rgb(51, 51, 51);&quot;&gt;process的&lt;/span&gt;&lt;span style=&quot;background-color: initial;&quot;&gt;&lt;font color=&quot;#333333&quot;&gt;model_relation_type&lt;/font&gt;&lt;/span&gt;&lt;/div&gt;" style="rounded=0;whiteSpace=wrap;html=1;align=center;" vertex="1" parent="1">
          <mxGeometry x="426" y="874" width="120" height="60" as="geometry" />
        </mxCell>
        <mxCell id="FaqCZbPYMvw0_bSV-Ejf-184" style="edgeStyle=orthogonalEdgeStyle;rounded=0;orthogonalLoop=1;jettySize=auto;html=1;exitX=0.5;exitY=1;exitDx=0;exitDy=0;" edge="1" parent="1" source="FaqCZbPYMvw0_bSV-Ejf-185" target="FaqCZbPYMvw0_bSV-Ejf-187">
          <mxGeometry relative="1" as="geometry" />
        </mxCell>
        <mxCell id="FaqCZbPYMvw0_bSV-Ejf-185" value="&lt;font style=&quot;font-size: 12px;&quot;&gt;模型关联-新增&lt;span style=&quot;color: rgb(51, 51, 51); text-align: start; background-color: initial;&quot;&gt;process的model_relation&lt;/span&gt;&lt;br&gt;&lt;/font&gt;" style="rounded=0;whiteSpace=wrap;html=1;" vertex="1" parent="1">
          <mxGeometry x="426" y="1000" width="120" height="60" as="geometry" />
        </mxCell>
        <mxCell id="FaqCZbPYMvw0_bSV-Ejf-186" value="" style="edgeStyle=orthogonalEdgeStyle;rounded=0;orthogonalLoop=1;jettySize=auto;html=1;entryX=0.5;entryY=0;entryDx=0;entryDy=0;" edge="1" parent="1" source="FaqCZbPYMvw0_bSV-Ejf-187" target="FaqCZbPYMvw0_bSV-Ejf-190">
          <mxGeometry relative="1" as="geometry">
            <mxPoint x="486.0000000000009" y="1250" as="targetPoint" />
          </mxGeometry>
        </mxCell>
        <mxCell id="FaqCZbPYMvw0_bSV-Ejf-187" value="&lt;font style=&quot;font-size: 12px;&quot;&gt;自动发现规则-新增&lt;span style=&quot;color: rgb(51, 51, 51); text-align: start; background-color: initial;&quot;&gt;process的relation_discovery_rule&lt;/span&gt;&lt;br&gt;&lt;/font&gt;" style="rounded=0;whiteSpace=wrap;html=1;" vertex="1" parent="1">
          <mxGeometry x="426" y="1128" width="120" height="60" as="geometry" />
        </mxCell>
        <mxCell id="FaqCZbPYMvw0_bSV-Ejf-190" value="结束" style="ellipse;whiteSpace=wrap;html=1;aspect=fixed;" vertex="1" parent="1">
          <mxGeometry x="446" y="1380" width="80" height="80" as="geometry" />
        </mxCell>
        <mxCell id="FaqCZbPYMvw0_bSV-Ejf-191" style="edgeStyle=orthogonalEdgeStyle;rounded=0;orthogonalLoop=1;jettySize=auto;html=1;" edge="1" parent="1" source="FaqCZbPYMvw0_bSV-Ejf-192" target="FaqCZbPYMvw0_bSV-Ejf-520">
          <mxGeometry relative="1" as="geometry">
            <mxPoint x="1082.5" y="-79.99999999999977" as="targetPoint" />
          </mxGeometry>
        </mxCell>
        <mxCell id="FaqCZbPYMvw0_bSV-Ejf-192" value="【数据录入】" style="rounded=0;whiteSpace=wrap;html=1;" vertex="1" parent="1">
          <mxGeometry x="1010" y="-228" width="145" height="60" as="geometry" />
        </mxCell>
        <mxCell id="FaqCZbPYMvw0_bSV-Ejf-193" style="edgeStyle=orthogonalEdgeStyle;rounded=0;orthogonalLoop=1;jettySize=auto;html=1;exitX=0.5;exitY=1;exitDx=0;exitDy=0;" edge="1" parent="1" source="FaqCZbPYMvw0_bSV-Ejf-194" target="FaqCZbPYMvw0_bSV-Ejf-214">
          <mxGeometry relative="1" as="geometry">
            <mxPoint x="1082.5" y="201" as="targetPoint" />
          </mxGeometry>
        </mxCell>
        <mxCell id="FaqCZbPYMvw0_bSV-Ejf-194" value="查询、校验process" style="rounded=0;whiteSpace=wrap;html=1;" vertex="1" parent="1">
          <mxGeometry x="1022.5" y="79" width="120" height="60" as="geometry" />
        </mxCell>
        <mxCell id="FaqCZbPYMvw0_bSV-Ejf-200" style="edgeStyle=orthogonalEdgeStyle;rounded=0;orthogonalLoop=1;jettySize=auto;html=1;exitX=0.5;exitY=1;exitDx=0;exitDy=0;" edge="1" parent="1" source="FaqCZbPYMvw0_bSV-Ejf-201" target="FaqCZbPYMvw0_bSV-Ejf-522">
          <mxGeometry relative="1" as="geometry">
            <mxPoint x="1082" y="638" as="targetPoint" />
          </mxGeometry>
        </mxCell>
        <mxCell id="FaqCZbPYMvw0_bSV-Ejf-201" value="按顺序处理model_list" style="rounded=0;whiteSpace=wrap;html=1;" vertex="1" parent="1">
          <mxGeometry x="1023" y="297" width="120" height="60" as="geometry" />
        </mxCell>
        <mxCell id="FaqCZbPYMvw0_bSV-Ejf-202" style="edgeStyle=orthogonalEdgeStyle;rounded=0;orthogonalLoop=1;jettySize=auto;html=1;exitX=0.5;exitY=1;exitDx=0;exitDy=0;entryX=0.5;entryY=0;entryDx=0;entryDy=0;endArrow=classic;endFill=1;" edge="1" parent="1" source="FaqCZbPYMvw0_bSV-Ejf-203" target="FaqCZbPYMvw0_bSV-Ejf-206">
          <mxGeometry relative="1" as="geometry" />
        </mxCell>
        <mxCell id="FaqCZbPYMvw0_bSV-Ejf-203" value="更新&lt;br&gt;model_list.status&lt;br&gt;状态" style="rounded=0;whiteSpace=wrap;html=1;" vertex="1" parent="1">
          <mxGeometry x="1023.5" y="761.5" width="120" height="60" as="geometry" />
        </mxCell>
        <mxCell id="FaqCZbPYMvw0_bSV-Ejf-205" style="edgeStyle=orthogonalEdgeStyle;rounded=0;orthogonalLoop=1;jettySize=auto;html=1;exitX=0.5;exitY=1;exitDx=0;exitDy=0;" edge="1" parent="1" source="FaqCZbPYMvw0_bSV-Ejf-206" target="FaqCZbPYMvw0_bSV-Ejf-208">
          <mxGeometry relative="1" as="geometry" />
        </mxCell>
        <mxCell id="FaqCZbPYMvw0_bSV-Ejf-529" value="是" style="edgeLabel;html=1;align=center;verticalAlign=middle;resizable=0;points=[];" vertex="1" connectable="0" parent="FaqCZbPYMvw0_bSV-Ejf-205">
          <mxGeometry x="-0.8258" y="-1" relative="1" as="geometry">
            <mxPoint as="offset" />
          </mxGeometry>
        </mxCell>
        <mxCell id="FaqCZbPYMvw0_bSV-Ejf-527" style="edgeStyle=orthogonalEdgeStyle;rounded=0;orthogonalLoop=1;jettySize=auto;html=1;exitX=0;exitY=0.5;exitDx=0;exitDy=0;entryX=0;entryY=0.5;entryDx=0;entryDy=0;" edge="1" parent="1" source="FaqCZbPYMvw0_bSV-Ejf-206" target="FaqCZbPYMvw0_bSV-Ejf-201">
          <mxGeometry relative="1" as="geometry">
            <Array as="points">
              <mxPoint x="920" y="930" />
              <mxPoint x="920" y="327" />
            </Array>
          </mxGeometry>
        </mxCell>
        <mxCell id="FaqCZbPYMvw0_bSV-Ejf-528" value="否" style="edgeLabel;html=1;align=center;verticalAlign=middle;resizable=0;points=[];" vertex="1" connectable="0" parent="FaqCZbPYMvw0_bSV-Ejf-527">
          <mxGeometry x="-0.9118" relative="1" as="geometry">
            <mxPoint as="offset" />
          </mxGeometry>
        </mxCell>
        <mxCell id="FaqCZbPYMvw0_bSV-Ejf-206" value="是否所有model.model_list&lt;br&gt;遍历完" style="rhombus;whiteSpace=wrap;html=1;" vertex="1" parent="1">
          <mxGeometry x="1043.5" y="890.0000000000001" width="80" height="80" as="geometry" />
        </mxCell>
        <mxCell id="FaqCZbPYMvw0_bSV-Ejf-207" style="edgeStyle=orthogonalEdgeStyle;rounded=0;orthogonalLoop=1;jettySize=auto;html=1;" edge="1" parent="1" source="FaqCZbPYMvw0_bSV-Ejf-208" target="FaqCZbPYMvw0_bSV-Ejf-530">
          <mxGeometry relative="1" as="geometry">
            <mxPoint x="1082.5172413793098" y="1188.0172413793098" as="targetPoint" />
          </mxGeometry>
        </mxCell>
        <mxCell id="FaqCZbPYMvw0_bSV-Ejf-208" value="异步触发&lt;br style=&quot;border-color: var(--border-color);&quot;&gt;&quot;process-notify&quot;&lt;br style=&quot;border-color: var(--border-color);&quot;&gt;事件推送，告知前端data-entry:1//模型创建&lt;br&gt;total_count: 5&lt;br&gt;success_count:4&lt;br&gt;failure_count:1" style="rounded=0;whiteSpace=wrap;html=1;" vertex="1" parent="1">
          <mxGeometry x="1023" y="1047.5" width="120" height="112.5" as="geometry" />
        </mxCell>
        <mxCell id="FaqCZbPYMvw0_bSV-Ejf-209" style="edgeStyle=orthogonalEdgeStyle;rounded=0;orthogonalLoop=1;jettySize=auto;html=1;exitX=0.5;exitY=1;exitDx=0;exitDy=0;" edge="1" parent="1" source="FaqCZbPYMvw0_bSV-Ejf-210" target="FaqCZbPYMvw0_bSV-Ejf-194">
          <mxGeometry relative="1" as="geometry" />
        </mxCell>
        <mxCell id="FaqCZbPYMvw0_bSV-Ejf-210" value="创建模型" style="rounded=0;whiteSpace=wrap;html=1;fillColor=#ffe6cc;strokeColor=#d79b00;" vertex="1" parent="1">
          <mxGeometry x="1022.5" y="-25" width="120" height="60" as="geometry" />
        </mxCell>
        <mxCell id="FaqCZbPYMvw0_bSV-Ejf-213" style="edgeStyle=orthogonalEdgeStyle;rounded=0;orthogonalLoop=1;jettySize=auto;html=1;exitX=0.5;exitY=1;exitDx=0;exitDy=0;" edge="1" parent="1" source="FaqCZbPYMvw0_bSV-Ejf-214" target="FaqCZbPYMvw0_bSV-Ejf-201">
          <mxGeometry relative="1" as="geometry" />
        </mxCell>
        <mxCell id="FaqCZbPYMvw0_bSV-Ejf-214" value="查询process的model.model_list.status为false的数据" style="rounded=0;whiteSpace=wrap;html=1;" vertex="1" parent="1">
          <mxGeometry x="1022.5" y="184.5" width="120" height="60" as="geometry" />
        </mxCell>
        <mxCell id="FaqCZbPYMvw0_bSV-Ejf-225" style="edgeStyle=orthogonalEdgeStyle;rounded=0;orthogonalLoop=1;jettySize=auto;html=1;exitX=0.5;exitY=1;exitDx=0;exitDy=0;" edge="1" parent="1" source="FaqCZbPYMvw0_bSV-Ejf-530" target="FaqCZbPYMvw0_bSV-Ejf-244">
          <mxGeometry relative="1" as="geometry">
            <mxPoint x="1083" y="1511" as="targetPoint" />
            <mxPoint x="1083.5000000000018" y="1453.000000000001" as="sourcePoint" />
          </mxGeometry>
        </mxCell>
        <mxCell id="FaqCZbPYMvw0_bSV-Ejf-230" style="edgeStyle=orthogonalEdgeStyle;rounded=0;orthogonalLoop=1;jettySize=auto;html=1;exitX=0.5;exitY=1;exitDx=0;exitDy=0;" edge="1" parent="1" source="FaqCZbPYMvw0_bSV-Ejf-231" target="FaqCZbPYMvw0_bSV-Ejf-397">
          <mxGeometry relative="1" as="geometry">
            <mxPoint x="1082" y="1697" as="targetPoint" />
          </mxGeometry>
        </mxCell>
        <mxCell id="FaqCZbPYMvw0_bSV-Ejf-231" value="将关联类型&lt;font color=&quot;#ff3333&quot;&gt;批量&lt;/font&gt;新增入系统表" style="rounded=0;whiteSpace=wrap;html=1;" vertex="1" parent="1">
          <mxGeometry x="1023" y="1440" width="120" height="60" as="geometry" />
        </mxCell>
        <mxCell id="FaqCZbPYMvw0_bSV-Ejf-237" style="edgeStyle=orthogonalEdgeStyle;rounded=0;orthogonalLoop=1;jettySize=auto;html=1;" edge="1" parent="1" source="FaqCZbPYMvw0_bSV-Ejf-238" target="FaqCZbPYMvw0_bSV-Ejf-262">
          <mxGeometry relative="1" as="geometry">
            <mxPoint x="1083" y="2168.9999999999995" as="targetPoint" />
          </mxGeometry>
        </mxCell>
        <mxCell id="FaqCZbPYMvw0_bSV-Ejf-238" value="查询process_ci_model_relation的status为false的数据" style="rounded=0;whiteSpace=wrap;html=1;" vertex="1" parent="1">
          <mxGeometry x="1022.5" y="1653.5" width="120" height="60" as="geometry" />
        </mxCell>
        <mxCell id="FaqCZbPYMvw0_bSV-Ejf-243" style="edgeStyle=orthogonalEdgeStyle;rounded=0;orthogonalLoop=1;jettySize=auto;html=1;exitX=0.5;exitY=1;exitDx=0;exitDy=0;" edge="1" parent="1" source="FaqCZbPYMvw0_bSV-Ejf-244" target="FaqCZbPYMvw0_bSV-Ejf-231">
          <mxGeometry relative="1" as="geometry">
            <mxPoint x="1082.5172413793098" y="1470.0172413793102" as="targetPoint" />
          </mxGeometry>
        </mxCell>
        <mxCell id="FaqCZbPYMvw0_bSV-Ejf-244" value="查询process的model_relation_type.status为false的数据" style="rounded=0;whiteSpace=wrap;html=1;" vertex="1" parent="1">
          <mxGeometry x="1023.5" y="1330" width="120" height="60" as="geometry" />
        </mxCell>
        <mxCell id="FaqCZbPYMvw0_bSV-Ejf-261" style="edgeStyle=orthogonalEdgeStyle;rounded=0;orthogonalLoop=1;jettySize=auto;html=1;exitX=0.5;exitY=1;exitDx=0;exitDy=0;entryX=0.5;entryY=0;entryDx=0;entryDy=0;" edge="1" parent="1" source="FaqCZbPYMvw0_bSV-Ejf-262" target="FaqCZbPYMvw0_bSV-Ejf-264">
          <mxGeometry relative="1" as="geometry">
            <mxPoint x="1083" y="1911.9999999999995" as="targetPoint" />
          </mxGeometry>
        </mxCell>
        <mxCell id="FaqCZbPYMvw0_bSV-Ejf-262" value="将模型关联数据&lt;font color=&quot;#ff3333&quot;&gt;逐个&lt;/font&gt;新增入ci_model_relation" style="rounded=0;whiteSpace=wrap;html=1;" vertex="1" parent="1">
          <mxGeometry x="1022.5" y="1765" width="120" height="60" as="geometry" />
        </mxCell>
        <mxCell id="FaqCZbPYMvw0_bSV-Ejf-263" style="edgeStyle=orthogonalEdgeStyle;rounded=0;orthogonalLoop=1;jettySize=auto;html=1;exitX=0.5;exitY=1;exitDx=0;exitDy=0;" edge="1" parent="1" source="FaqCZbPYMvw0_bSV-Ejf-264" target="FaqCZbPYMvw0_bSV-Ejf-267">
          <mxGeometry relative="1" as="geometry" />
        </mxCell>
        <mxCell id="FaqCZbPYMvw0_bSV-Ejf-264" value="更新process的model_realtion的statue" style="rounded=0;whiteSpace=wrap;html=1;" vertex="1" parent="1">
          <mxGeometry x="1023" y="1895" width="120" height="60" as="geometry" />
        </mxCell>
        <mxCell id="FaqCZbPYMvw0_bSV-Ejf-266" style="edgeStyle=orthogonalEdgeStyle;rounded=0;orthogonalLoop=1;jettySize=auto;html=1;exitX=0.5;exitY=1;exitDx=0;exitDy=0;" edge="1" parent="1" source="FaqCZbPYMvw0_bSV-Ejf-267" target="FaqCZbPYMvw0_bSV-Ejf-269">
          <mxGeometry relative="1" as="geometry">
            <mxPoint x="1082.0588235294117" y="2205" as="targetPoint" />
          </mxGeometry>
        </mxCell>
        <mxCell id="FaqCZbPYMvw0_bSV-Ejf-541" value="是" style="edgeLabel;html=1;align=center;verticalAlign=middle;resizable=0;points=[];" vertex="1" connectable="0" parent="FaqCZbPYMvw0_bSV-Ejf-266">
          <mxGeometry x="-0.7699" y="-1" relative="1" as="geometry">
            <mxPoint as="offset" />
          </mxGeometry>
        </mxCell>
        <mxCell id="FaqCZbPYMvw0_bSV-Ejf-539" style="edgeStyle=orthogonalEdgeStyle;rounded=0;orthogonalLoop=1;jettySize=auto;html=1;exitX=1;exitY=0.5;exitDx=0;exitDy=0;entryX=1;entryY=0.5;entryDx=0;entryDy=0;" edge="1" parent="1" source="FaqCZbPYMvw0_bSV-Ejf-267" target="FaqCZbPYMvw0_bSV-Ejf-262">
          <mxGeometry relative="1" as="geometry">
            <Array as="points">
              <mxPoint x="1250" y="2062" />
              <mxPoint x="1250" y="1795" />
            </Array>
          </mxGeometry>
        </mxCell>
        <mxCell id="FaqCZbPYMvw0_bSV-Ejf-540" value="否" style="edgeLabel;html=1;align=center;verticalAlign=middle;resizable=0;points=[];" vertex="1" connectable="0" parent="FaqCZbPYMvw0_bSV-Ejf-539">
          <mxGeometry x="-0.8778" y="1" relative="1" as="geometry">
            <mxPoint as="offset" />
          </mxGeometry>
        </mxCell>
        <mxCell id="FaqCZbPYMvw0_bSV-Ejf-267" value="是否遍历完所有数据" style="rhombus;whiteSpace=wrap;html=1;" vertex="1" parent="1">
          <mxGeometry x="1042.5" y="2022" width="80" height="80" as="geometry" />
        </mxCell>
        <mxCell id="FaqCZbPYMvw0_bSV-Ejf-543" value="" style="edgeStyle=orthogonalEdgeStyle;rounded=0;orthogonalLoop=1;jettySize=auto;html=1;" edge="1" parent="1" source="FaqCZbPYMvw0_bSV-Ejf-269" target="FaqCZbPYMvw0_bSV-Ejf-542">
          <mxGeometry relative="1" as="geometry" />
        </mxCell>
        <mxCell id="FaqCZbPYMvw0_bSV-Ejf-269" value="异步触发&lt;br style=&quot;border-color: var(--border-color);&quot;&gt;&quot;process-notify&quot;&lt;br style=&quot;border-color: var(--border-color);&quot;&gt;事件推送，告知前端data-entry:2//模型关联创建&lt;br style=&quot;border-color: var(--border-color);&quot;&gt;total_count: 5&lt;br style=&quot;border-color: var(--border-color);&quot;&gt;success_count:4&lt;br&gt;failure_count:1" style="rounded=0;whiteSpace=wrap;html=1;" vertex="1" parent="1">
          <mxGeometry x="1023" y="2214" width="120" height="146" as="geometry" />
        </mxCell>
        <mxCell id="FaqCZbPYMvw0_bSV-Ejf-277" style="edgeStyle=orthogonalEdgeStyle;rounded=0;orthogonalLoop=1;jettySize=auto;html=1;exitX=0.5;exitY=1;exitDx=0;exitDy=0;" edge="1" parent="1" source="FaqCZbPYMvw0_bSV-Ejf-278" target="FaqCZbPYMvw0_bSV-Ejf-389">
          <mxGeometry relative="1" as="geometry" />
        </mxCell>
        <mxCell id="FaqCZbPYMvw0_bSV-Ejf-278" value="根据模型下标获取selected_sheet__list&lt;br&gt;需要写入的文件或sheet页" style="rounded=0;whiteSpace=wrap;html=1;" vertex="1" parent="1">
          <mxGeometry x="1023" y="3503" width="120" height="60" as="geometry" />
        </mxCell>
        <mxCell id="FaqCZbPYMvw0_bSV-Ejf-279" style="edgeStyle=orthogonalEdgeStyle;rounded=0;orthogonalLoop=1;jettySize=auto;html=1;exitX=0.5;exitY=1;exitDx=0;exitDy=0;" edge="1" parent="1" source="FaqCZbPYMvw0_bSV-Ejf-283" target="FaqCZbPYMvw0_bSV-Ejf-298">
          <mxGeometry relative="1" as="geometry">
            <mxPoint x="1093" y="3946" as="targetPoint" />
          </mxGeometry>
        </mxCell>
        <mxCell id="FaqCZbPYMvw0_bSV-Ejf-280" value="是" style="edgeLabel;html=1;align=center;verticalAlign=middle;resizable=0;points=[];" vertex="1" connectable="0" parent="FaqCZbPYMvw0_bSV-Ejf-279">
          <mxGeometry x="-0.6863" relative="1" as="geometry">
            <mxPoint as="offset" />
          </mxGeometry>
        </mxCell>
        <mxCell id="FaqCZbPYMvw0_bSV-Ejf-281" style="edgeStyle=orthogonalEdgeStyle;rounded=0;orthogonalLoop=1;jettySize=auto;html=1;exitX=1;exitY=0.5;exitDx=0;exitDy=0;entryX=1;entryY=0.5;entryDx=0;entryDy=0;" edge="1" parent="1" source="FaqCZbPYMvw0_bSV-Ejf-283" target="FaqCZbPYMvw0_bSV-Ejf-278">
          <mxGeometry relative="1" as="geometry">
            <Array as="points">
              <mxPoint x="1223" y="3786" />
              <mxPoint x="1223" y="3533" />
            </Array>
          </mxGeometry>
        </mxCell>
        <mxCell id="FaqCZbPYMvw0_bSV-Ejf-282" value="否" style="edgeLabel;html=1;align=center;verticalAlign=middle;resizable=0;points=[];" vertex="1" connectable="0" parent="FaqCZbPYMvw0_bSV-Ejf-281">
          <mxGeometry x="-0.8761" relative="1" as="geometry">
            <mxPoint as="offset" />
          </mxGeometry>
        </mxCell>
        <mxCell id="FaqCZbPYMvw0_bSV-Ejf-283" value="是否已读写完所有sheet数据（包括cvs）" style="rhombus;whiteSpace=wrap;html=1;" vertex="1" parent="1">
          <mxGeometry x="993" y="3746" width="180" height="80" as="geometry" />
        </mxCell>
        <mxCell id="FaqCZbPYMvw0_bSV-Ejf-284" style="edgeStyle=orthogonalEdgeStyle;rounded=0;orthogonalLoop=1;jettySize=auto;html=1;exitX=0.5;exitY=1;exitDx=0;exitDy=0;" edge="1" parent="1" source="FaqCZbPYMvw0_bSV-Ejf-285" target="FaqCZbPYMvw0_bSV-Ejf-307">
          <mxGeometry relative="1" as="geometry">
            <mxPoint x="1083" y="4146" as="targetPoint" />
          </mxGeometry>
        </mxCell>
        <mxCell id="FaqCZbPYMvw0_bSV-Ejf-285" value="收集失败数据" style="rounded=0;whiteSpace=wrap;html=1;" vertex="1" parent="1">
          <mxGeometry x="1023" y="4019" width="120" height="60" as="geometry" />
        </mxCell>
        <mxCell id="FaqCZbPYMvw0_bSV-Ejf-297" style="edgeStyle=orthogonalEdgeStyle;rounded=0;orthogonalLoop=1;jettySize=auto;html=1;exitX=0.5;exitY=1;exitDx=0;exitDy=0;" edge="1" parent="1" source="FaqCZbPYMvw0_bSV-Ejf-298" target="FaqCZbPYMvw0_bSV-Ejf-285">
          <mxGeometry relative="1" as="geometry" />
        </mxCell>
        <mxCell id="FaqCZbPYMvw0_bSV-Ejf-298" value="获取数据入库" style="rounded=0;whiteSpace=wrap;html=1;" vertex="1" parent="1">
          <mxGeometry x="1023" y="3915" width="120" height="60" as="geometry" />
        </mxCell>
        <mxCell id="FaqCZbPYMvw0_bSV-Ejf-299" style="edgeStyle=orthogonalEdgeStyle;rounded=0;orthogonalLoop=1;jettySize=auto;html=1;exitX=0.5;exitY=1;exitDx=0;exitDy=0;" edge="1" parent="1" source="FaqCZbPYMvw0_bSV-Ejf-300" target="FaqCZbPYMvw0_bSV-Ejf-302">
          <mxGeometry relative="1" as="geometry" />
        </mxCell>
        <mxCell id="FaqCZbPYMvw0_bSV-Ejf-300" value="根据processId查询process的selected_sheet__list、model.model_list、&lt;br&gt;model.model_list.properties" style="rounded=0;whiteSpace=wrap;html=1;" vertex="1" parent="1">
          <mxGeometry x="1022.5" y="3320" width="120" height="60" as="geometry" />
        </mxCell>
        <mxCell id="FaqCZbPYMvw0_bSV-Ejf-301" style="edgeStyle=orthogonalEdgeStyle;rounded=0;orthogonalLoop=1;jettySize=auto;html=1;exitX=0.5;exitY=1;exitDx=0;exitDy=0;" edge="1" parent="1" source="FaqCZbPYMvw0_bSV-Ejf-302" target="FaqCZbPYMvw0_bSV-Ejf-278">
          <mxGeometry relative="1" as="geometry">
            <mxPoint x="1083.3333333333335" y="3443" as="targetPoint" />
          </mxGeometry>
        </mxCell>
        <mxCell id="FaqCZbPYMvw0_bSV-Ejf-302" value="获取模型列表" style="rounded=0;whiteSpace=wrap;html=1;" vertex="1" parent="1">
          <mxGeometry x="1023.5" y="3420" width="120" height="60" as="geometry" />
        </mxCell>
        <mxCell id="FaqCZbPYMvw0_bSV-Ejf-303" style="edgeStyle=orthogonalEdgeStyle;rounded=0;orthogonalLoop=1;jettySize=auto;html=1;exitX=0;exitY=0.5;exitDx=0;exitDy=0;entryX=0;entryY=0.5;entryDx=0;entryDy=0;" edge="1" parent="1" source="FaqCZbPYMvw0_bSV-Ejf-307" target="FaqCZbPYMvw0_bSV-Ejf-278">
          <mxGeometry relative="1" as="geometry">
            <Array as="points">
              <mxPoint x="863" y="4164" />
              <mxPoint x="863" y="3533" />
            </Array>
          </mxGeometry>
        </mxCell>
        <mxCell id="FaqCZbPYMvw0_bSV-Ejf-304" value="否" style="edgeLabel;html=1;align=center;verticalAlign=middle;resizable=0;points=[];" vertex="1" connectable="0" parent="FaqCZbPYMvw0_bSV-Ejf-303">
          <mxGeometry x="-0.9127" y="2" relative="1" as="geometry">
            <mxPoint as="offset" />
          </mxGeometry>
        </mxCell>
        <mxCell id="FaqCZbPYMvw0_bSV-Ejf-305" style="edgeStyle=orthogonalEdgeStyle;rounded=0;orthogonalLoop=1;jettySize=auto;html=1;exitX=0.5;exitY=1;exitDx=0;exitDy=0;" edge="1" parent="1" source="FaqCZbPYMvw0_bSV-Ejf-307" target="FaqCZbPYMvw0_bSV-Ejf-391">
          <mxGeometry relative="1" as="geometry" />
        </mxCell>
        <mxCell id="FaqCZbPYMvw0_bSV-Ejf-306" value="是" style="edgeLabel;html=1;align=center;verticalAlign=middle;resizable=0;points=[];" vertex="1" connectable="0" parent="FaqCZbPYMvw0_bSV-Ejf-305">
          <mxGeometry x="-0.6049" relative="1" as="geometry">
            <mxPoint as="offset" />
          </mxGeometry>
        </mxCell>
        <mxCell id="FaqCZbPYMvw0_bSV-Ejf-307" value="是否所有模型相关的文件已读取完毕" style="rhombus;whiteSpace=wrap;html=1;" vertex="1" parent="1">
          <mxGeometry x="973" y="4124" width="220" height="80" as="geometry" />
        </mxCell>
        <mxCell id="FaqCZbPYMvw0_bSV-Ejf-319" value="是" style="edgeStyle=orthogonalEdgeStyle;rounded=0;orthogonalLoop=1;jettySize=auto;html=1;entryX=1;entryY=0.5;entryDx=0;entryDy=0;exitX=0;exitY=0.5;exitDx=0;exitDy=0;" edge="1" parent="1" source="FaqCZbPYMvw0_bSV-Ejf-322" target="FaqCZbPYMvw0_bSV-Ejf-91">
          <mxGeometry relative="1" as="geometry">
            <mxPoint x="-1066" y="576" as="sourcePoint" />
          </mxGeometry>
        </mxCell>
        <mxCell id="FaqCZbPYMvw0_bSV-Ejf-320" style="edgeStyle=orthogonalEdgeStyle;rounded=0;orthogonalLoop=1;jettySize=auto;html=1;" edge="1" parent="1" source="FaqCZbPYMvw0_bSV-Ejf-322" target="FaqCZbPYMvw0_bSV-Ejf-323">
          <mxGeometry relative="1" as="geometry">
            <Array as="points">
              <mxPoint x="-986" y="669" />
              <mxPoint x="-1110" y="669" />
            </Array>
            <mxPoint x="-986" y="616" as="sourcePoint" />
          </mxGeometry>
        </mxCell>
        <mxCell id="FaqCZbPYMvw0_bSV-Ejf-321" value="否" style="edgeLabel;html=1;align=center;verticalAlign=middle;resizable=0;points=[];" vertex="1" connectable="0" parent="FaqCZbPYMvw0_bSV-Ejf-320">
          <mxGeometry x="-0.8908" y="-1" relative="1" as="geometry">
            <mxPoint as="offset" />
          </mxGeometry>
        </mxCell>
        <mxCell id="FaqCZbPYMvw0_bSV-Ejf-322" value="页面上是否存在相同" style="rhombus;whiteSpace=wrap;html=1;" vertex="1" parent="1">
          <mxGeometry x="-1066" y="537" width="160" height="80" as="geometry" />
        </mxCell>
        <mxCell id="FaqCZbPYMvw0_bSV-Ejf-323" value="结束" style="ellipse;whiteSpace=wrap;html=1;" vertex="1" parent="1">
          <mxGeometry x="-1170" y="729" width="120" height="80" as="geometry" />
        </mxCell>
        <mxCell id="FaqCZbPYMvw0_bSV-Ejf-324" style="edgeStyle=orthogonalEdgeStyle;rounded=0;orthogonalLoop=1;jettySize=auto;html=1;" edge="1" parent="1" source="FaqCZbPYMvw0_bSV-Ejf-325" target="FaqCZbPYMvw0_bSV-Ejf-89">
          <mxGeometry relative="1" as="geometry" />
        </mxCell>
        <mxCell id="FaqCZbPYMvw0_bSV-Ejf-325" value="后端通过查询redis、mongodb" style="rounded=0;whiteSpace=wrap;html=1;" vertex="1" parent="1">
          <mxGeometry x="-1250" y="100" width="120" height="60" as="geometry" />
        </mxCell>
        <mxCell id="FaqCZbPYMvw0_bSV-Ejf-326" style="edgeStyle=orthogonalEdgeStyle;rounded=0;orthogonalLoop=1;jettySize=auto;html=1;" edge="1" parent="1" source="FaqCZbPYMvw0_bSV-Ejf-327" target="FaqCZbPYMvw0_bSV-Ejf-343">
          <mxGeometry relative="1" as="geometry" />
        </mxCell>
        <mxCell id="FaqCZbPYMvw0_bSV-Ejf-327" value="前端根据返回的模型列表数据，调用对应接口进行比较，是否存在相同" style="rounded=0;whiteSpace=wrap;html=1;" vertex="1" parent="1">
          <mxGeometry x="-706" y="-63" width="280" height="60" as="geometry" />
        </mxCell>
        <mxCell id="FaqCZbPYMvw0_bSV-Ejf-328" style="edgeStyle=orthogonalEdgeStyle;rounded=0;orthogonalLoop=1;jettySize=auto;html=1;exitX=0.5;exitY=1;exitDx=0;exitDy=0;entryX=0.5;entryY=0;entryDx=0;entryDy=0;" edge="1" parent="1" source="FaqCZbPYMvw0_bSV-Ejf-332" target="FaqCZbPYMvw0_bSV-Ejf-334">
          <mxGeometry relative="1" as="geometry">
            <mxPoint x="-565.6923076923076" y="543" as="targetPoint" />
          </mxGeometry>
        </mxCell>
        <mxCell id="FaqCZbPYMvw0_bSV-Ejf-329" value="是" style="edgeLabel;html=1;align=center;verticalAlign=middle;resizable=0;points=[];" vertex="1" connectable="0" parent="FaqCZbPYMvw0_bSV-Ejf-328">
          <mxGeometry x="-0.7751" y="-1" relative="1" as="geometry">
            <mxPoint as="offset" />
          </mxGeometry>
        </mxCell>
        <mxCell id="FaqCZbPYMvw0_bSV-Ejf-330" style="edgeStyle=orthogonalEdgeStyle;rounded=0;orthogonalLoop=1;jettySize=auto;html=1;" edge="1" parent="1" source="FaqCZbPYMvw0_bSV-Ejf-332" target="FaqCZbPYMvw0_bSV-Ejf-340">
          <mxGeometry relative="1" as="geometry">
            <mxPoint x="-362" y="543" as="targetPoint" />
          </mxGeometry>
        </mxCell>
        <mxCell id="FaqCZbPYMvw0_bSV-Ejf-331" value="否" style="edgeLabel;html=1;align=center;verticalAlign=middle;resizable=0;points=[];" vertex="1" connectable="0" parent="FaqCZbPYMvw0_bSV-Ejf-330">
          <mxGeometry x="-0.1916" y="-1" relative="1" as="geometry">
            <mxPoint x="-92" y="3" as="offset" />
          </mxGeometry>
        </mxCell>
        <mxCell id="FaqCZbPYMvw0_bSV-Ejf-332" value="是否存在相同" style="rhombus;whiteSpace=wrap;html=1;" vertex="1" parent="1">
          <mxGeometry x="-606" y="333" width="80" height="80" as="geometry" />
        </mxCell>
        <mxCell id="FaqCZbPYMvw0_bSV-Ejf-333" style="edgeStyle=orthogonalEdgeStyle;rounded=0;orthogonalLoop=1;jettySize=auto;html=1;" edge="1" parent="1" source="FaqCZbPYMvw0_bSV-Ejf-334" target="FaqCZbPYMvw0_bSV-Ejf-341">
          <mxGeometry relative="1" as="geometry">
            <Array as="points">
              <mxPoint x="-566" y="676" />
              <mxPoint x="-486" y="676" />
            </Array>
          </mxGeometry>
        </mxCell>
        <mxCell id="FaqCZbPYMvw0_bSV-Ejf-334" value="赋值感叹号" style="rounded=0;whiteSpace=wrap;html=1;" vertex="1" parent="1">
          <mxGeometry x="-626" y="553" width="120" height="60" as="geometry" />
        </mxCell>
        <mxCell id="FaqCZbPYMvw0_bSV-Ejf-335" style="edgeStyle=orthogonalEdgeStyle;rounded=0;orthogonalLoop=1;jettySize=auto;html=1;entryX=0.5;entryY=0;entryDx=0;entryDy=0;" edge="1" parent="1" source="FaqCZbPYMvw0_bSV-Ejf-336" target="FaqCZbPYMvw0_bSV-Ejf-327">
          <mxGeometry relative="1" as="geometry" />
        </mxCell>
        <mxCell id="FaqCZbPYMvw0_bSV-Ejf-336" value="【设置模型字段】-判断模型字段唯一标识、模型字段名称&lt;br&gt;是否合法" style="rounded=0;whiteSpace=wrap;html=1;" vertex="1" parent="1">
          <mxGeometry x="-683" y="-221" width="234" height="60" as="geometry" />
        </mxCell>
        <mxCell id="FaqCZbPYMvw0_bSV-Ejf-337" value="是" style="edgeStyle=orthogonalEdgeStyle;rounded=0;orthogonalLoop=1;jettySize=auto;html=1;entryX=1;entryY=0.5;entryDx=0;entryDy=0;exitX=0;exitY=0.5;exitDx=0;exitDy=0;" edge="1" parent="1" source="FaqCZbPYMvw0_bSV-Ejf-340" target="FaqCZbPYMvw0_bSV-Ejf-334">
          <mxGeometry relative="1" as="geometry">
            <mxPoint x="-442" y="583" as="sourcePoint" />
          </mxGeometry>
        </mxCell>
        <mxCell id="FaqCZbPYMvw0_bSV-Ejf-338" style="edgeStyle=orthogonalEdgeStyle;rounded=0;orthogonalLoop=1;jettySize=auto;html=1;exitX=0.5;exitY=1;exitDx=0;exitDy=0;entryX=0.5;entryY=0;entryDx=0;entryDy=0;" edge="1" parent="1" source="FaqCZbPYMvw0_bSV-Ejf-340" target="FaqCZbPYMvw0_bSV-Ejf-341">
          <mxGeometry relative="1" as="geometry">
            <Array as="points">
              <mxPoint x="-369" y="679" />
              <mxPoint x="-486" y="679" />
            </Array>
          </mxGeometry>
        </mxCell>
        <mxCell id="FaqCZbPYMvw0_bSV-Ejf-339" value="否" style="edgeLabel;html=1;align=center;verticalAlign=middle;resizable=0;points=[];" vertex="1" connectable="0" parent="FaqCZbPYMvw0_bSV-Ejf-338">
          <mxGeometry x="-0.8418" relative="1" as="geometry">
            <mxPoint as="offset" />
          </mxGeometry>
        </mxCell>
        <mxCell id="FaqCZbPYMvw0_bSV-Ejf-340" value="页面上是否存在相同" style="rhombus;whiteSpace=wrap;html=1;" vertex="1" parent="1">
          <mxGeometry x="-449" y="543" width="160" height="80" as="geometry" />
        </mxCell>
        <mxCell id="FaqCZbPYMvw0_bSV-Ejf-341" value="结束" style="ellipse;whiteSpace=wrap;html=1;" vertex="1" parent="1">
          <mxGeometry x="-546" y="736" width="120" height="80" as="geometry" />
        </mxCell>
        <mxCell id="FaqCZbPYMvw0_bSV-Ejf-342" style="edgeStyle=orthogonalEdgeStyle;rounded=0;orthogonalLoop=1;jettySize=auto;html=1;" edge="1" parent="1" source="FaqCZbPYMvw0_bSV-Ejf-343" target="FaqCZbPYMvw0_bSV-Ejf-332">
          <mxGeometry relative="1" as="geometry" />
        </mxCell>
        <mxCell id="FaqCZbPYMvw0_bSV-Ejf-343" value="后端通过查询数据库判断是否与默认字段重复，返回判断结果" style="rounded=0;whiteSpace=wrap;html=1;" vertex="1" parent="1">
          <mxGeometry x="-626" y="107" width="120" height="60" as="geometry" />
        </mxCell>
        <mxCell id="FaqCZbPYMvw0_bSV-Ejf-344" style="edgeStyle=orthogonalEdgeStyle;rounded=0;orthogonalLoop=1;jettySize=auto;html=1;exitX=0.5;exitY=1;exitDx=0;exitDy=0;entryX=0.5;entryY=0;entryDx=0;entryDy=0;" edge="1" parent="1" source="FaqCZbPYMvw0_bSV-Ejf-345" target="FaqCZbPYMvw0_bSV-Ejf-183">
          <mxGeometry relative="1" as="geometry" />
        </mxCell>
        <mxCell id="FaqCZbPYMvw0_bSV-Ejf-345" value="&lt;font style=&quot;font-size: 12px;&quot;&gt;表头设置-新增model.modle_list.&lt;span style=&quot;color: rgb(51, 51, 51); text-align: start; background-color: initial;&quot;&gt;model_header&lt;/span&gt;&lt;br&gt;&lt;/font&gt;" style="rounded=0;whiteSpace=wrap;html=1;" vertex="1" parent="1">
          <mxGeometry x="426" y="729" width="120" height="60" as="geometry" />
        </mxCell>
        <mxCell id="FaqCZbPYMvw0_bSV-Ejf-376" style="edgeStyle=orthogonalEdgeStyle;rounded=0;orthogonalLoop=1;jettySize=auto;html=1;exitX=0.5;exitY=1;exitDx=0;exitDy=0;" edge="1" parent="1" source="FaqCZbPYMvw0_bSV-Ejf-377">
          <mxGeometry relative="1" as="geometry">
            <mxPoint x="4880.333333333334" y="290.5" as="targetPoint" />
          </mxGeometry>
        </mxCell>
        <mxCell id="FaqCZbPYMvw0_bSV-Ejf-377" value="根据modelName解锁模型、更新ci_model的locked" style="rounded=0;whiteSpace=wrap;html=1;fillColor=#ffe6cc;strokeColor=#d79b00;" vertex="1" parent="1">
          <mxGeometry x="4820" y="170.5" width="120" height="60" as="geometry" />
        </mxCell>
        <mxCell id="FaqCZbPYMvw0_bSV-Ejf-378" style="edgeStyle=orthogonalEdgeStyle;rounded=0;orthogonalLoop=1;jettySize=auto;html=1;exitX=0.5;exitY=1;exitDx=0;exitDy=0;" edge="1" parent="1" source="FaqCZbPYMvw0_bSV-Ejf-379" target="FaqCZbPYMvw0_bSV-Ejf-383">
          <mxGeometry relative="1" as="geometry">
            <mxPoint x="4880" y="410.5" as="targetPoint" />
          </mxGeometry>
        </mxCell>
        <mxCell id="FaqCZbPYMvw0_bSV-Ejf-379" value="根据fileId清理文件" style="rounded=0;whiteSpace=wrap;html=1;" vertex="1" parent="1">
          <mxGeometry x="4820" y="290.5" width="120" height="60" as="geometry" />
        </mxCell>
        <mxCell id="FaqCZbPYMvw0_bSV-Ejf-382" style="edgeStyle=orthogonalEdgeStyle;rounded=0;orthogonalLoop=1;jettySize=auto;html=1;exitX=0.5;exitY=1;exitDx=0;exitDy=0;" edge="1" parent="1" source="FaqCZbPYMvw0_bSV-Ejf-383" target="FaqCZbPYMvw0_bSV-Ejf-33">
          <mxGeometry relative="1" as="geometry">
            <mxPoint x="4880" y="683.5" as="targetPoint" />
          </mxGeometry>
        </mxCell>
        <mxCell id="FaqCZbPYMvw0_bSV-Ejf-383" value="删除process表数据" style="rounded=0;whiteSpace=wrap;html=1;" vertex="1" parent="1">
          <mxGeometry x="4820" y="428.5" width="120" height="60" as="geometry" />
        </mxCell>
        <mxCell id="FaqCZbPYMvw0_bSV-Ejf-384" style="edgeStyle=orthogonalEdgeStyle;rounded=0;orthogonalLoop=1;jettySize=auto;html=1;" edge="1" parent="1" source="FaqCZbPYMvw0_bSV-Ejf-385" target="FaqCZbPYMvw0_bSV-Ejf-377">
          <mxGeometry relative="1" as="geometry" />
        </mxCell>
        <mxCell id="FaqCZbPYMvw0_bSV-Ejf-385" value="processId查询临时表数据" style="rounded=0;whiteSpace=wrap;html=1;" vertex="1" parent="1">
          <mxGeometry x="4820" y="47" width="120" height="60" as="geometry" />
        </mxCell>
        <mxCell id="FaqCZbPYMvw0_bSV-Ejf-388" style="edgeStyle=orthogonalEdgeStyle;rounded=0;orthogonalLoop=1;jettySize=auto;html=1;exitX=0.5;exitY=1;exitDx=0;exitDy=0;" edge="1" parent="1" source="FaqCZbPYMvw0_bSV-Ejf-389" target="FaqCZbPYMvw0_bSV-Ejf-283">
          <mxGeometry relative="1" as="geometry" />
        </mxCell>
        <mxCell id="FaqCZbPYMvw0_bSV-Ejf-389" value="以sheet页数据量为单位、更新data_import_record字段" style="rounded=0;whiteSpace=wrap;html=1;" vertex="1" parent="1">
          <mxGeometry x="1023" y="3619" width="120" height="60" as="geometry" />
        </mxCell>
        <mxCell id="FaqCZbPYMvw0_bSV-Ejf-390" style="edgeStyle=orthogonalEdgeStyle;rounded=0;orthogonalLoop=1;jettySize=auto;html=1;exitX=0.5;exitY=1;exitDx=0;exitDy=0;" edge="1" parent="1" source="FaqCZbPYMvw0_bSV-Ejf-391" target="FaqCZbPYMvw0_bSV-Ejf-567">
          <mxGeometry relative="1" as="geometry">
            <mxPoint x="1083" y="4369" as="targetPoint" />
          </mxGeometry>
        </mxCell>
        <mxCell id="FaqCZbPYMvw0_bSV-Ejf-391" value="&lt;div style=&quot;&quot;&gt;更新&lt;span style=&quot;background-color: initial;&quot;&gt;&lt;font face=&quot;Open Sans, Clear Sans, Helvetica Neue, Helvetica, Arial, sans-serif&quot; color=&quot;#333333&quot;&gt;data_import_record&lt;/font&gt;&lt;/span&gt;&lt;/div&gt;" style="rounded=0;whiteSpace=wrap;html=1;align=center;" vertex="1" parent="1">
          <mxGeometry x="1023" y="4269" width="120" height="60" as="geometry" />
        </mxCell>
        <mxCell id="FaqCZbPYMvw0_bSV-Ejf-392" style="edgeStyle=orthogonalEdgeStyle;rounded=0;orthogonalLoop=1;jettySize=auto;html=1;exitX=0.5;exitY=1;exitDx=0;exitDy=0;" edge="1" parent="1" source="FaqCZbPYMvw0_bSV-Ejf-525" target="FaqCZbPYMvw0_bSV-Ejf-203">
          <mxGeometry relative="1" as="geometry">
            <mxPoint x="1082.5294117647063" y="872.6994117647067" as="targetPoint" />
            <mxPoint x="1083" y="897" as="sourcePoint" />
          </mxGeometry>
        </mxCell>
        <mxCell id="FaqCZbPYMvw0_bSV-Ejf-394" style="rounded=0;orthogonalLoop=1;jettySize=auto;html=1;endArrow=none;endFill=0;dashed=1;" edge="1" parent="1" source="FaqCZbPYMvw0_bSV-Ejf-395" target="FaqCZbPYMvw0_bSV-Ejf-159">
          <mxGeometry relative="1" as="geometry" />
        </mxCell>
        <mxCell id="FaqCZbPYMvw0_bSV-Ejf-395" value="&lt;span&gt;【设置解析规则】步骤中已入库、此时更新为修改后的数据&lt;/span&gt;" style="shape=note;whiteSpace=wrap;html=1;backgroundOutline=1;darkOpacity=0.05;fillColor=#ffe6cc;strokeColor=#d79b00;" vertex="1" parent="1">
          <mxGeometry x="-226" y="349" width="130" height="110" as="geometry" />
        </mxCell>
        <mxCell id="FaqCZbPYMvw0_bSV-Ejf-396" style="edgeStyle=orthogonalEdgeStyle;rounded=0;orthogonalLoop=1;jettySize=auto;html=1;endArrow=classic;endFill=1;" edge="1" parent="1" source="FaqCZbPYMvw0_bSV-Ejf-397" target="FaqCZbPYMvw0_bSV-Ejf-238">
          <mxGeometry relative="1" as="geometry">
            <mxPoint x="1083" y="1902" as="targetPoint" />
          </mxGeometry>
        </mxCell>
        <mxCell id="FaqCZbPYMvw0_bSV-Ejf-397" value="更新model_relation_type.status." style="rounded=0;whiteSpace=wrap;html=1;" vertex="1" parent="1">
          <mxGeometry x="1022.5" y="1550" width="120" height="60" as="geometry" />
        </mxCell>
        <mxCell id="FaqCZbPYMvw0_bSV-Ejf-403" style="edgeStyle=orthogonalEdgeStyle;rounded=0;orthogonalLoop=1;jettySize=auto;html=1;exitX=0.5;exitY=1;exitDx=0;exitDy=0;" edge="1" parent="1" source="FaqCZbPYMvw0_bSV-Ejf-402" target="FaqCZbPYMvw0_bSV-Ejf-120">
          <mxGeometry relative="1" as="geometry" />
        </mxCell>
        <mxCell id="FaqCZbPYMvw0_bSV-Ejf-402" value="前端监听事件" style="rounded=0;whiteSpace=wrap;html=1;fillColor=#ffe6cc;strokeColor=#d79b00;" vertex="1" parent="1">
          <mxGeometry x="-5640" y="95.5" width="120" height="60" as="geometry" />
        </mxCell>
        <mxCell id="FaqCZbPYMvw0_bSV-Ejf-404" value="&lt;h3 style=&quot;box-sizing: border-box; break-after: avoid-page; break-inside: avoid; orphans: 4; margin-top: 1rem; margin-bottom: 1rem; position: relative; line-height: 1.43; cursor: text; color: rgb(51, 51, 51); font-family: &amp;quot;Open Sans&amp;quot;, &amp;quot;Clear Sans&amp;quot;, &amp;quot;Helvetica Neue&amp;quot;, Helvetica, Arial, &amp;quot;Segoe UI Emoji&amp;quot;, sans-serif; text-align: start;&quot; class=&quot;md-end-block md-heading md-focus&quot;&gt;&lt;span style=&quot;font-size: 12px;&quot;&gt;前端建立监听类型为“process-notify”&lt;/span&gt;&lt;/h3&gt;" style="shape=note;whiteSpace=wrap;html=1;backgroundOutline=1;darkOpacity=0.05;" vertex="1" parent="1">
          <mxGeometry x="-5920" y="24.5" width="260" height="60" as="geometry" />
        </mxCell>
        <mxCell id="FaqCZbPYMvw0_bSV-Ejf-405" style="rounded=0;orthogonalLoop=1;jettySize=auto;html=1;entryX=0;entryY=0;entryDx=260;entryDy=45;entryPerimeter=0;endArrow=none;endFill=0;exitX=0;exitY=0.25;exitDx=0;exitDy=0;" edge="1" parent="1" source="FaqCZbPYMvw0_bSV-Ejf-402" target="FaqCZbPYMvw0_bSV-Ejf-404">
          <mxGeometry relative="1" as="geometry">
            <mxPoint x="-5630" y="279.5" as="sourcePoint" />
            <mxPoint x="-5650" y="244.5" as="targetPoint" />
          </mxGeometry>
        </mxCell>
        <mxCell id="FaqCZbPYMvw0_bSV-Ejf-407" style="edgeStyle=orthogonalEdgeStyle;rounded=0;orthogonalLoop=1;jettySize=auto;html=1;" edge="1" parent="1" source="FaqCZbPYMvw0_bSV-Ejf-406" target="FaqCZbPYMvw0_bSV-Ejf-129">
          <mxGeometry relative="1" as="geometry" />
        </mxCell>
        <mxCell id="FaqCZbPYMvw0_bSV-Ejf-406" value="比对库表数据与接口数据" style="rounded=0;whiteSpace=wrap;html=1;" vertex="1" parent="1">
          <mxGeometry x="-4870" y="82.5" width="120" height="60" as="geometry" />
        </mxCell>
        <mxCell id="FaqCZbPYMvw0_bSV-Ejf-408" style="edgeStyle=orthogonalEdgeStyle;rounded=0;orthogonalLoop=1;jettySize=auto;html=1;exitX=0.5;exitY=1;exitDx=0;exitDy=0;" edge="1" parent="1" source="FaqCZbPYMvw0_bSV-Ejf-409" target="FaqCZbPYMvw0_bSV-Ejf-411">
          <mxGeometry relative="1" as="geometry">
            <mxPoint x="-4370" y="-53.5" as="targetPoint" />
          </mxGeometry>
        </mxCell>
        <mxCell id="FaqCZbPYMvw0_bSV-Ejf-409" value="【上传文件】-轮询查询文件是否解析完成" style="rounded=0;whiteSpace=wrap;html=1;" vertex="1" parent="1">
          <mxGeometry x="-4430" y="-223.5" width="120" height="60" as="geometry" />
        </mxCell>
        <mxCell id="FaqCZbPYMvw0_bSV-Ejf-410" style="edgeStyle=orthogonalEdgeStyle;rounded=0;orthogonalLoop=1;jettySize=auto;html=1;" edge="1" parent="1" source="FaqCZbPYMvw0_bSV-Ejf-411" target="FaqCZbPYMvw0_bSV-Ejf-413">
          <mxGeometry relative="1" as="geometry">
            <mxPoint x="-4370" y="278.5" as="targetPoint" />
          </mxGeometry>
        </mxCell>
        <mxCell id="FaqCZbPYMvw0_bSV-Ejf-411" value="传入processId请求后端接口" style="rounded=0;whiteSpace=wrap;html=1;" vertex="1" parent="1">
          <mxGeometry x="-4430" y="-16.5" width="120" height="60" as="geometry" />
        </mxCell>
        <mxCell id="FaqCZbPYMvw0_bSV-Ejf-420" style="edgeStyle=orthogonalEdgeStyle;rounded=0;orthogonalLoop=1;jettySize=auto;html=1;" edge="1" parent="1" source="FaqCZbPYMvw0_bSV-Ejf-413" target="FaqCZbPYMvw0_bSV-Ejf-419">
          <mxGeometry relative="1" as="geometry" />
        </mxCell>
        <mxCell id="FaqCZbPYMvw0_bSV-Ejf-413" value="根据processId查询线程池执行结果" style="rounded=0;whiteSpace=wrap;html=1;" vertex="1" parent="1">
          <mxGeometry x="-4430" y="198.5" width="120" height="60" as="geometry" />
        </mxCell>
        <mxCell id="FaqCZbPYMvw0_bSV-Ejf-416" value="结束" style="ellipse;whiteSpace=wrap;html=1;aspect=fixed;" vertex="1" parent="1">
          <mxGeometry x="-4410" y="756" width="80" height="80" as="geometry" />
        </mxCell>
        <mxCell id="FaqCZbPYMvw0_bSV-Ejf-422" style="edgeStyle=orthogonalEdgeStyle;rounded=0;orthogonalLoop=1;jettySize=auto;html=1;" edge="1" parent="1" source="FaqCZbPYMvw0_bSV-Ejf-417" target="FaqCZbPYMvw0_bSV-Ejf-423">
          <mxGeometry relative="1" as="geometry">
            <mxPoint x="-4370" y="623.5" as="targetPoint" />
          </mxGeometry>
        </mxCell>
        <mxCell id="FaqCZbPYMvw0_bSV-Ejf-427" value="是" style="edgeLabel;html=1;align=center;verticalAlign=middle;resizable=0;points=[];" vertex="1" connectable="0" parent="FaqCZbPYMvw0_bSV-Ejf-422">
          <mxGeometry x="-0.5916" y="-2" relative="1" as="geometry">
            <mxPoint as="offset" />
          </mxGeometry>
        </mxCell>
        <mxCell id="FaqCZbPYMvw0_bSV-Ejf-425" style="edgeStyle=orthogonalEdgeStyle;rounded=0;orthogonalLoop=1;jettySize=auto;html=1;exitX=1;exitY=0.5;exitDx=0;exitDy=0;entryX=1;entryY=0.5;entryDx=0;entryDy=0;" edge="1" parent="1" source="FaqCZbPYMvw0_bSV-Ejf-417" target="FaqCZbPYMvw0_bSV-Ejf-409">
          <mxGeometry relative="1" as="geometry">
            <Array as="points">
              <mxPoint x="-4210" y="510.5" />
              <mxPoint x="-4210" y="-193.5" />
            </Array>
          </mxGeometry>
        </mxCell>
        <mxCell id="FaqCZbPYMvw0_bSV-Ejf-426" value="否" style="edgeLabel;html=1;align=center;verticalAlign=middle;resizable=0;points=[];" vertex="1" connectable="0" parent="FaqCZbPYMvw0_bSV-Ejf-425">
          <mxGeometry x="-0.967" y="1" relative="1" as="geometry">
            <mxPoint as="offset" />
          </mxGeometry>
        </mxCell>
        <mxCell id="FaqCZbPYMvw0_bSV-Ejf-417" value="是否完成" style="rhombus;whiteSpace=wrap;html=1;" vertex="1" parent="1">
          <mxGeometry x="-4410" y="470.5" width="80" height="80" as="geometry" />
        </mxCell>
        <mxCell id="FaqCZbPYMvw0_bSV-Ejf-421" style="edgeStyle=orthogonalEdgeStyle;rounded=0;orthogonalLoop=1;jettySize=auto;html=1;exitX=0.5;exitY=1;exitDx=0;exitDy=0;" edge="1" parent="1" source="FaqCZbPYMvw0_bSV-Ejf-419" target="FaqCZbPYMvw0_bSV-Ejf-417">
          <mxGeometry relative="1" as="geometry">
            <mxPoint x="-4370.263157894737" y="443.5" as="targetPoint" />
          </mxGeometry>
        </mxCell>
        <mxCell id="FaqCZbPYMvw0_bSV-Ejf-419" value="返回前端" style="rounded=0;whiteSpace=wrap;html=1;" vertex="1" parent="1">
          <mxGeometry x="-4430" y="343.5" width="120" height="60" as="geometry" />
        </mxCell>
        <mxCell id="FaqCZbPYMvw0_bSV-Ejf-424" style="edgeStyle=orthogonalEdgeStyle;rounded=0;orthogonalLoop=1;jettySize=auto;html=1;exitX=0.5;exitY=1;exitDx=0;exitDy=0;entryX=0.5;entryY=0;entryDx=0;entryDy=0;" edge="1" parent="1" source="FaqCZbPYMvw0_bSV-Ejf-423" target="FaqCZbPYMvw0_bSV-Ejf-416">
          <mxGeometry relative="1" as="geometry">
            <mxPoint x="-4370" y="759.1700000000001" as="targetPoint" />
          </mxGeometry>
        </mxCell>
        <mxCell id="FaqCZbPYMvw0_bSV-Ejf-423" value="结束轮询" style="rounded=0;whiteSpace=wrap;html=1;" vertex="1" parent="1">
          <mxGeometry x="-4430" y="617.5" width="120" height="60" as="geometry" />
        </mxCell>
        <mxCell id="FaqCZbPYMvw0_bSV-Ejf-428" value="结束后触发&lt;br&gt;&quot;&lt;span style=&quot;color: rgb(51, 51, 51); font-family: &amp;quot;Open Sans&amp;quot;, &amp;quot;Clear Sans&amp;quot;, &amp;quot;Helvetica Neue&amp;quot;, Helvetica, Arial, &amp;quot;Segoe UI Emoji&amp;quot;, sans-serif; orphans: 4; text-align: start; background-color: initial;&quot;&gt;process-notify&lt;/span&gt;&quot;&lt;br&gt;事件推送，告知前端当前完成第一步-上传文件" style="rounded=0;whiteSpace=wrap;html=1;" vertex="1" parent="1">
          <mxGeometry x="-4040" y="193.5" width="120" height="60" as="geometry" />
        </mxCell>
        <mxCell id="FaqCZbPYMvw0_bSV-Ejf-429" style="edgeStyle=orthogonalEdgeStyle;rounded=0;orthogonalLoop=1;jettySize=auto;html=1;exitX=0.5;exitY=1;exitDx=0;exitDy=0;" edge="1" parent="1" source="FaqCZbPYMvw0_bSV-Ejf-430" target="FaqCZbPYMvw0_bSV-Ejf-432">
          <mxGeometry relative="1" as="geometry">
            <mxPoint x="-3670" y="-53.5" as="targetPoint" />
          </mxGeometry>
        </mxCell>
        <mxCell id="FaqCZbPYMvw0_bSV-Ejf-430" value="【上传文件】-获取文件sheet数据" style="rounded=0;whiteSpace=wrap;html=1;" vertex="1" parent="1">
          <mxGeometry x="-3730" y="-223.5" width="120" height="60" as="geometry" />
        </mxCell>
        <mxCell id="FaqCZbPYMvw0_bSV-Ejf-431" style="edgeStyle=orthogonalEdgeStyle;rounded=0;orthogonalLoop=1;jettySize=auto;html=1;" edge="1" parent="1" source="FaqCZbPYMvw0_bSV-Ejf-432" target="FaqCZbPYMvw0_bSV-Ejf-437">
          <mxGeometry relative="1" as="geometry">
            <mxPoint x="-3670" y="111.5" as="targetPoint" />
          </mxGeometry>
        </mxCell>
        <mxCell id="FaqCZbPYMvw0_bSV-Ejf-432" value="从redis中获取数据" style="rounded=0;whiteSpace=wrap;html=1;" vertex="1" parent="1">
          <mxGeometry x="-3730" y="-2.5" width="120" height="60" as="geometry" />
        </mxCell>
        <mxCell id="FaqCZbPYMvw0_bSV-Ejf-433" style="edgeStyle=orthogonalEdgeStyle;rounded=0;orthogonalLoop=1;jettySize=auto;html=1;exitX=0.5;exitY=1;exitDx=0;exitDy=0;" edge="1" parent="1" source="FaqCZbPYMvw0_bSV-Ejf-437" target="FaqCZbPYMvw0_bSV-Ejf-436">
          <mxGeometry relative="1" as="geometry">
            <mxPoint x="-3670" y="308.5" as="targetPoint" />
            <mxPoint x="-3670" y="171.5" as="sourcePoint" />
          </mxGeometry>
        </mxCell>
        <mxCell id="FaqCZbPYMvw0_bSV-Ejf-436" value="结束" style="ellipse;whiteSpace=wrap;html=1;aspect=fixed;" vertex="1" parent="1">
          <mxGeometry x="-3710" y="447.5" width="80" height="80" as="geometry" />
        </mxCell>
        <mxCell id="FaqCZbPYMvw0_bSV-Ejf-437" value="返回前端" style="rounded=0;whiteSpace=wrap;html=1;" vertex="1" parent="1">
          <mxGeometry x="-3730" y="216.5" width="120" height="60" as="geometry" />
        </mxCell>
        <mxCell id="FaqCZbPYMvw0_bSV-Ejf-439" style="edgeStyle=orthogonalEdgeStyle;rounded=0;orthogonalLoop=1;jettySize=auto;html=1;" edge="1" parent="1" source="FaqCZbPYMvw0_bSV-Ejf-438" target="FaqCZbPYMvw0_bSV-Ejf-428">
          <mxGeometry relative="1" as="geometry" />
        </mxCell>
        <mxCell id="FaqCZbPYMvw0_bSV-Ejf-438" value="将结果写入redis" style="rounded=0;whiteSpace=wrap;html=1;" vertex="1" parent="1">
          <mxGeometry x="-4040" y="68.5" width="120" height="60" as="geometry" />
        </mxCell>
        <mxCell id="FaqCZbPYMvw0_bSV-Ejf-442" value="是否循环完所有列" style="rhombus;whiteSpace=wrap;html=1;" vertex="1" parent="1">
          <mxGeometry x="-2660.49" y="1092.5" width="80" height="80" as="geometry" />
        </mxCell>
        <mxCell id="FaqCZbPYMvw0_bSV-Ejf-444" value="" style="edgeStyle=orthogonalEdgeStyle;rounded=0;orthogonalLoop=1;jettySize=auto;html=1;" edge="1" parent="1" source="FaqCZbPYMvw0_bSV-Ejf-443" target="FaqCZbPYMvw0_bSV-Ejf-446">
          <mxGeometry relative="1" as="geometry">
            <mxPoint x="-2619.5" y="1379.5000000000005" as="targetPoint" />
          </mxGeometry>
        </mxCell>
        <mxCell id="FaqCZbPYMvw0_bSV-Ejf-443" value="记录模型字段列表" style="rounded=0;whiteSpace=wrap;html=1;" vertex="1" parent="1">
          <mxGeometry x="-2679.5" y="1259.5" width="120" height="60" as="geometry" />
        </mxCell>
        <mxCell id="FaqCZbPYMvw0_bSV-Ejf-446" value="是否循环完所有归类" style="rhombus;whiteSpace=wrap;html=1;" vertex="1" parent="1">
          <mxGeometry x="-2659.5" y="1379.5" width="80" height="80" as="geometry" />
        </mxCell>
        <mxCell id="FaqCZbPYMvw0_bSV-Ejf-447" style="edgeStyle=orthogonalEdgeStyle;rounded=0;orthogonalLoop=1;jettySize=auto;html=1;" edge="1" parent="1" source="FaqCZbPYMvw0_bSV-Ejf-448" target="FaqCZbPYMvw0_bSV-Ejf-450">
          <mxGeometry relative="1" as="geometry" />
        </mxCell>
        <mxCell id="FaqCZbPYMvw0_bSV-Ejf-448" value="【设置解析规则】-提交" style="rounded=0;whiteSpace=wrap;html=1;" vertex="1" parent="1">
          <mxGeometry x="-3370" y="-228.5" width="120" height="60" as="geometry" />
        </mxCell>
        <mxCell id="FaqCZbPYMvw0_bSV-Ejf-449" style="edgeStyle=orthogonalEdgeStyle;rounded=0;orthogonalLoop=1;jettySize=auto;html=1;" edge="1" parent="1" source="FaqCZbPYMvw0_bSV-Ejf-450" target="FaqCZbPYMvw0_bSV-Ejf-460">
          <mxGeometry relative="1" as="geometry">
            <mxPoint x="-3310" y="-38.5" as="targetPoint" />
          </mxGeometry>
        </mxCell>
        <mxCell id="FaqCZbPYMvw0_bSV-Ejf-450" value="提交processId、规则设置，勾选的数据" style="rounded=0;whiteSpace=wrap;html=1;" vertex="1" parent="1">
          <mxGeometry x="-3450" y="-68.5" width="280" height="60" as="geometry" />
        </mxCell>
        <mxCell id="FaqCZbPYMvw0_bSV-Ejf-477" style="edgeStyle=orthogonalEdgeStyle;rounded=0;orthogonalLoop=1;jettySize=auto;html=1;" edge="1" parent="1" source="FaqCZbPYMvw0_bSV-Ejf-451" target="FaqCZbPYMvw0_bSV-Ejf-476">
          <mxGeometry relative="1" as="geometry" />
        </mxCell>
        <mxCell id="FaqCZbPYMvw0_bSV-Ejf-451" value="&lt;div style=&quot;orphans: 4;&quot;&gt;开启异步解析文件&lt;/div&gt;&lt;div style=&quot;orphans: 2;&quot;&gt;&lt;/div&gt;" style="rounded=0;whiteSpace=wrap;html=1;align=center;" vertex="1" parent="1">
          <mxGeometry x="-3368.51" y="378.5" width="120" height="60" as="geometry" />
        </mxCell>
        <mxCell id="FaqCZbPYMvw0_bSV-Ejf-452" style="edgeStyle=orthogonalEdgeStyle;rounded=0;orthogonalLoop=1;jettySize=auto;html=1;exitX=0.5;exitY=1;exitDx=0;exitDy=0;" edge="1" parent="1" source="FaqCZbPYMvw0_bSV-Ejf-456" target="FaqCZbPYMvw0_bSV-Ejf-451">
          <mxGeometry relative="1" as="geometry">
            <mxPoint x="-3309" y="368.5" as="targetPoint" />
          </mxGeometry>
        </mxCell>
        <mxCell id="FaqCZbPYMvw0_bSV-Ejf-453" value="是" style="edgeLabel;html=1;align=center;verticalAlign=middle;resizable=0;points=[];" vertex="1" connectable="0" parent="FaqCZbPYMvw0_bSV-Ejf-452">
          <mxGeometry x="-0.7463" y="-1" relative="1" as="geometry">
            <mxPoint y="11" as="offset" />
          </mxGeometry>
        </mxCell>
        <mxCell id="FaqCZbPYMvw0_bSV-Ejf-454" style="edgeStyle=orthogonalEdgeStyle;rounded=0;orthogonalLoop=1;jettySize=auto;html=1;exitX=1;exitY=0.5;exitDx=0;exitDy=0;" edge="1" parent="1" source="FaqCZbPYMvw0_bSV-Ejf-456" target="FaqCZbPYMvw0_bSV-Ejf-480">
          <mxGeometry relative="1" as="geometry" />
        </mxCell>
        <mxCell id="FaqCZbPYMvw0_bSV-Ejf-455" value="否" style="edgeLabel;html=1;align=center;verticalAlign=middle;resizable=0;points=[];" vertex="1" connectable="0" parent="FaqCZbPYMvw0_bSV-Ejf-454">
          <mxGeometry x="-0.6971" y="-1" relative="1" as="geometry">
            <mxPoint as="offset" />
          </mxGeometry>
        </mxCell>
        <mxCell id="FaqCZbPYMvw0_bSV-Ejf-456" value="是否相等或库表数据为空" style="rhombus;whiteSpace=wrap;html=1;" vertex="1" parent="1">
          <mxGeometry x="-3349" y="158.5" width="80" height="80" as="geometry" />
        </mxCell>
        <mxCell id="FaqCZbPYMvw0_bSV-Ejf-457" style="edgeStyle=orthogonalEdgeStyle;rounded=0;orthogonalLoop=1;jettySize=auto;html=1;exitX=0.5;exitY=1;exitDx=0;exitDy=0;entryX=1;entryY=0.5;entryDx=0;entryDy=0;" edge="1" parent="1" source="FaqCZbPYMvw0_bSV-Ejf-458" target="FaqCZbPYMvw0_bSV-Ejf-451">
          <mxGeometry relative="1" as="geometry">
            <mxPoint x="-3249" y="398.5" as="targetPoint" />
          </mxGeometry>
        </mxCell>
        <mxCell id="FaqCZbPYMvw0_bSV-Ejf-458" value="清除后续步骤的数据" style="rounded=0;whiteSpace=wrap;html=1;" vertex="1" parent="1">
          <mxGeometry x="-3219" y="328.5" width="120" height="60" as="geometry" />
        </mxCell>
        <mxCell id="FaqCZbPYMvw0_bSV-Ejf-459" style="edgeStyle=orthogonalEdgeStyle;rounded=0;orthogonalLoop=1;jettySize=auto;html=1;exitX=0.5;exitY=1;exitDx=0;exitDy=0;" edge="1" parent="1" source="FaqCZbPYMvw0_bSV-Ejf-460" target="FaqCZbPYMvw0_bSV-Ejf-456">
          <mxGeometry relative="1" as="geometry" />
        </mxCell>
        <mxCell id="FaqCZbPYMvw0_bSV-Ejf-460" value="对比库表与传参数据" style="rounded=0;whiteSpace=wrap;html=1;" vertex="1" parent="1">
          <mxGeometry x="-3370" y="57.5" width="120" height="53" as="geometry" />
        </mxCell>
        <mxCell id="FaqCZbPYMvw0_bSV-Ejf-476" value="结束" style="ellipse;whiteSpace=wrap;html=1;aspect=fixed;" vertex="1" parent="1">
          <mxGeometry x="-3348.51" y="512.5" width="80" height="80" as="geometry" />
        </mxCell>
        <mxCell id="FaqCZbPYMvw0_bSV-Ejf-479" value="" style="edgeStyle=orthogonalEdgeStyle;rounded=0;orthogonalLoop=1;jettySize=auto;html=1;" edge="1" parent="1" source="FaqCZbPYMvw0_bSV-Ejf-478" target="FaqCZbPYMvw0_bSV-Ejf-135">
          <mxGeometry relative="1" as="geometry" />
        </mxCell>
        <mxCell id="FaqCZbPYMvw0_bSV-Ejf-478" value="中断异步执行" style="rounded=0;whiteSpace=wrap;html=1;" vertex="1" parent="1">
          <mxGeometry x="-4700" y="313.5" width="120" height="60" as="geometry" />
        </mxCell>
        <mxCell id="FaqCZbPYMvw0_bSV-Ejf-481" value="" style="edgeStyle=orthogonalEdgeStyle;rounded=0;orthogonalLoop=1;jettySize=auto;html=1;" edge="1" parent="1" source="FaqCZbPYMvw0_bSV-Ejf-480" target="FaqCZbPYMvw0_bSV-Ejf-458">
          <mxGeometry relative="1" as="geometry" />
        </mxCell>
        <mxCell id="FaqCZbPYMvw0_bSV-Ejf-480" value="中断异步执行" style="rounded=0;whiteSpace=wrap;html=1;" vertex="1" parent="1">
          <mxGeometry x="-3219" y="244.5" width="120" height="60" as="geometry" />
        </mxCell>
        <mxCell id="FaqCZbPYMvw0_bSV-Ejf-483" style="edgeStyle=orthogonalEdgeStyle;rounded=0;orthogonalLoop=1;jettySize=auto;html=1;entryX=0.5;entryY=0;entryDx=0;entryDy=0;" edge="1" parent="1" source="FaqCZbPYMvw0_bSV-Ejf-482" target="FaqCZbPYMvw0_bSV-Ejf-24">
          <mxGeometry relative="1" as="geometry" />
        </mxCell>
        <mxCell id="FaqCZbPYMvw0_bSV-Ejf-482" value="结束后触发&lt;br&gt;&quot;&lt;span style=&quot;color: rgb(51, 51, 51); font-family: &amp;quot;Open Sans&amp;quot;, &amp;quot;Clear Sans&amp;quot;, &amp;quot;Helvetica Neue&amp;quot;, Helvetica, Arial, &amp;quot;Segoe UI Emoji&amp;quot;, sans-serif; orphans: 4; text-align: start; background-color: initial;&quot;&gt;process-notify&lt;/span&gt;&quot;&lt;br&gt;事件推送，告知前端当前完成第二步-设置解析规则" style="rounded=0;whiteSpace=wrap;html=1;" vertex="1" parent="1">
          <mxGeometry x="-2679.49" y="1653.5" width="120" height="60" as="geometry" />
        </mxCell>
        <mxCell id="FaqCZbPYMvw0_bSV-Ejf-492" style="edgeStyle=orthogonalEdgeStyle;rounded=0;orthogonalLoop=1;jettySize=auto;html=1;exitX=0.5;exitY=1;exitDx=0;exitDy=0;" edge="1" parent="1" source="FaqCZbPYMvw0_bSV-Ejf-493" target="FaqCZbPYMvw0_bSV-Ejf-495">
          <mxGeometry relative="1" as="geometry">
            <mxPoint x="-2020" y="-58" as="targetPoint" />
          </mxGeometry>
        </mxCell>
        <mxCell id="FaqCZbPYMvw0_bSV-Ejf-493" value="【设置解析规则】-轮询查询导入数据是否解析完成" style="rounded=0;whiteSpace=wrap;html=1;" vertex="1" parent="1">
          <mxGeometry x="-2080" y="-228" width="120" height="60" as="geometry" />
        </mxCell>
        <mxCell id="FaqCZbPYMvw0_bSV-Ejf-494" style="edgeStyle=orthogonalEdgeStyle;rounded=0;orthogonalLoop=1;jettySize=auto;html=1;" edge="1" parent="1" source="FaqCZbPYMvw0_bSV-Ejf-495" target="FaqCZbPYMvw0_bSV-Ejf-497">
          <mxGeometry relative="1" as="geometry">
            <mxPoint x="-2020" y="274" as="targetPoint" />
          </mxGeometry>
        </mxCell>
        <mxCell id="FaqCZbPYMvw0_bSV-Ejf-495" value="传入processId请求后端接口" style="rounded=0;whiteSpace=wrap;html=1;" vertex="1" parent="1">
          <mxGeometry x="-2080" y="-21" width="120" height="60" as="geometry" />
        </mxCell>
        <mxCell id="FaqCZbPYMvw0_bSV-Ejf-496" style="edgeStyle=orthogonalEdgeStyle;rounded=0;orthogonalLoop=1;jettySize=auto;html=1;" edge="1" parent="1" source="FaqCZbPYMvw0_bSV-Ejf-497" target="FaqCZbPYMvw0_bSV-Ejf-505">
          <mxGeometry relative="1" as="geometry" />
        </mxCell>
        <mxCell id="FaqCZbPYMvw0_bSV-Ejf-497" value="根据processId查询异步执行结果" style="rounded=0;whiteSpace=wrap;html=1;" vertex="1" parent="1">
          <mxGeometry x="-2080" y="194" width="120" height="60" as="geometry" />
        </mxCell>
        <mxCell id="FaqCZbPYMvw0_bSV-Ejf-498" value="结束" style="ellipse;whiteSpace=wrap;html=1;aspect=fixed;" vertex="1" parent="1">
          <mxGeometry x="-2060" y="751.5" width="80" height="80" as="geometry" />
        </mxCell>
        <mxCell id="FaqCZbPYMvw0_bSV-Ejf-499" style="edgeStyle=orthogonalEdgeStyle;rounded=0;orthogonalLoop=1;jettySize=auto;html=1;" edge="1" parent="1" source="FaqCZbPYMvw0_bSV-Ejf-503" target="FaqCZbPYMvw0_bSV-Ejf-507">
          <mxGeometry relative="1" as="geometry">
            <mxPoint x="-2020" y="619" as="targetPoint" />
          </mxGeometry>
        </mxCell>
        <mxCell id="FaqCZbPYMvw0_bSV-Ejf-500" value="是" style="edgeLabel;html=1;align=center;verticalAlign=middle;resizable=0;points=[];" vertex="1" connectable="0" parent="FaqCZbPYMvw0_bSV-Ejf-499">
          <mxGeometry x="-0.5916" y="-2" relative="1" as="geometry">
            <mxPoint as="offset" />
          </mxGeometry>
        </mxCell>
        <mxCell id="FaqCZbPYMvw0_bSV-Ejf-501" style="edgeStyle=orthogonalEdgeStyle;rounded=0;orthogonalLoop=1;jettySize=auto;html=1;exitX=1;exitY=0.5;exitDx=0;exitDy=0;entryX=1;entryY=0.5;entryDx=0;entryDy=0;" edge="1" parent="1" source="FaqCZbPYMvw0_bSV-Ejf-503" target="FaqCZbPYMvw0_bSV-Ejf-493">
          <mxGeometry relative="1" as="geometry">
            <Array as="points">
              <mxPoint x="-1860" y="506" />
              <mxPoint x="-1860" y="-198" />
            </Array>
          </mxGeometry>
        </mxCell>
        <mxCell id="FaqCZbPYMvw0_bSV-Ejf-502" value="否" style="edgeLabel;html=1;align=center;verticalAlign=middle;resizable=0;points=[];" vertex="1" connectable="0" parent="FaqCZbPYMvw0_bSV-Ejf-501">
          <mxGeometry x="-0.967" y="1" relative="1" as="geometry">
            <mxPoint as="offset" />
          </mxGeometry>
        </mxCell>
        <mxCell id="FaqCZbPYMvw0_bSV-Ejf-503" value="是否完成" style="rhombus;whiteSpace=wrap;html=1;" vertex="1" parent="1">
          <mxGeometry x="-2060" y="466" width="80" height="80" as="geometry" />
        </mxCell>
        <mxCell id="FaqCZbPYMvw0_bSV-Ejf-504" style="edgeStyle=orthogonalEdgeStyle;rounded=0;orthogonalLoop=1;jettySize=auto;html=1;exitX=0.5;exitY=1;exitDx=0;exitDy=0;" edge="1" parent="1" source="FaqCZbPYMvw0_bSV-Ejf-505" target="FaqCZbPYMvw0_bSV-Ejf-503">
          <mxGeometry relative="1" as="geometry">
            <mxPoint x="-2020.2631578947367" y="439" as="targetPoint" />
          </mxGeometry>
        </mxCell>
        <mxCell id="FaqCZbPYMvw0_bSV-Ejf-505" value="返回前端" style="rounded=0;whiteSpace=wrap;html=1;" vertex="1" parent="1">
          <mxGeometry x="-2080" y="339" width="120" height="60" as="geometry" />
        </mxCell>
        <mxCell id="FaqCZbPYMvw0_bSV-Ejf-506" style="edgeStyle=orthogonalEdgeStyle;rounded=0;orthogonalLoop=1;jettySize=auto;html=1;exitX=0.5;exitY=1;exitDx=0;exitDy=0;entryX=0.5;entryY=0;entryDx=0;entryDy=0;" edge="1" parent="1" source="FaqCZbPYMvw0_bSV-Ejf-507" target="FaqCZbPYMvw0_bSV-Ejf-498">
          <mxGeometry relative="1" as="geometry">
            <mxPoint x="-2020" y="754.6700000000001" as="targetPoint" />
          </mxGeometry>
        </mxCell>
        <mxCell id="FaqCZbPYMvw0_bSV-Ejf-507" value="结束轮询" style="rounded=0;whiteSpace=wrap;html=1;" vertex="1" parent="1">
          <mxGeometry x="-2080" y="613" width="120" height="60" as="geometry" />
        </mxCell>
        <mxCell id="FaqCZbPYMvw0_bSV-Ejf-509" style="edgeStyle=orthogonalEdgeStyle;rounded=0;orthogonalLoop=1;jettySize=auto;html=1;exitX=0.5;exitY=1;exitDx=0;exitDy=0;" edge="1" parent="1" source="FaqCZbPYMvw0_bSV-Ejf-510" target="FaqCZbPYMvw0_bSV-Ejf-512">
          <mxGeometry relative="1" as="geometry">
            <mxPoint x="-1600" y="-56" as="targetPoint" />
          </mxGeometry>
        </mxCell>
        <mxCell id="FaqCZbPYMvw0_bSV-Ejf-510" value="【设置解析规则】-获取文件sheet数据" style="rounded=0;whiteSpace=wrap;html=1;" vertex="1" parent="1">
          <mxGeometry x="-1660" y="-226" width="120" height="60" as="geometry" />
        </mxCell>
        <mxCell id="FaqCZbPYMvw0_bSV-Ejf-511" style="edgeStyle=orthogonalEdgeStyle;rounded=0;orthogonalLoop=1;jettySize=auto;html=1;" edge="1" parent="1" source="FaqCZbPYMvw0_bSV-Ejf-512" target="FaqCZbPYMvw0_bSV-Ejf-515">
          <mxGeometry relative="1" as="geometry">
            <mxPoint x="-1600" y="109" as="targetPoint" />
          </mxGeometry>
        </mxCell>
        <mxCell id="FaqCZbPYMvw0_bSV-Ejf-512" value="从redis中获取数据" style="rounded=0;whiteSpace=wrap;html=1;" vertex="1" parent="1">
          <mxGeometry x="-1660" y="-5" width="120" height="60" as="geometry" />
        </mxCell>
        <mxCell id="FaqCZbPYMvw0_bSV-Ejf-513" style="edgeStyle=orthogonalEdgeStyle;rounded=0;orthogonalLoop=1;jettySize=auto;html=1;exitX=0.5;exitY=1;exitDx=0;exitDy=0;" edge="1" parent="1" source="FaqCZbPYMvw0_bSV-Ejf-515" target="FaqCZbPYMvw0_bSV-Ejf-514">
          <mxGeometry relative="1" as="geometry">
            <mxPoint x="-1600" y="306" as="targetPoint" />
            <mxPoint x="-1600" y="169" as="sourcePoint" />
          </mxGeometry>
        </mxCell>
        <mxCell id="FaqCZbPYMvw0_bSV-Ejf-514" value="结束" style="ellipse;whiteSpace=wrap;html=1;aspect=fixed;" vertex="1" parent="1">
          <mxGeometry x="-1640" y="445" width="80" height="80" as="geometry" />
        </mxCell>
        <mxCell id="FaqCZbPYMvw0_bSV-Ejf-515" value="返回前端" style="rounded=0;whiteSpace=wrap;html=1;" vertex="1" parent="1">
          <mxGeometry x="-1660" y="214" width="120" height="60" as="geometry" />
        </mxCell>
        <mxCell id="FaqCZbPYMvw0_bSV-Ejf-521" value="" style="edgeStyle=orthogonalEdgeStyle;rounded=0;orthogonalLoop=1;jettySize=auto;html=1;" edge="1" parent="1" source="FaqCZbPYMvw0_bSV-Ejf-520" target="FaqCZbPYMvw0_bSV-Ejf-210">
          <mxGeometry relative="1" as="geometry" />
        </mxCell>
        <mxCell id="FaqCZbPYMvw0_bSV-Ejf-520" value="请求后端接口" style="rounded=0;whiteSpace=wrap;html=1;" vertex="1" parent="1">
          <mxGeometry x="1023" y="-121.5" width="120" height="60" as="geometry" />
        </mxCell>
        <mxCell id="FaqCZbPYMvw0_bSV-Ejf-524" style="edgeStyle=orthogonalEdgeStyle;rounded=0;orthogonalLoop=1;jettySize=auto;html=1;exitX=0.5;exitY=1;exitDx=0;exitDy=0;" edge="1" parent="1" source="FaqCZbPYMvw0_bSV-Ejf-522" target="FaqCZbPYMvw0_bSV-Ejf-523">
          <mxGeometry relative="1" as="geometry" />
        </mxCell>
        <mxCell id="FaqCZbPYMvw0_bSV-Ejf-522" value="创建模型写入ci_model、并且locked为true" style="rounded=0;whiteSpace=wrap;html=1;" vertex="1" parent="1">
          <mxGeometry x="1022.5" y="398.5" width="120" height="60" as="geometry" />
        </mxCell>
        <mxCell id="FaqCZbPYMvw0_bSV-Ejf-526" style="edgeStyle=orthogonalEdgeStyle;rounded=0;orthogonalLoop=1;jettySize=auto;html=1;" edge="1" parent="1" source="FaqCZbPYMvw0_bSV-Ejf-523" target="FaqCZbPYMvw0_bSV-Ejf-525">
          <mxGeometry relative="1" as="geometry" />
        </mxCell>
        <mxCell id="FaqCZbPYMvw0_bSV-Ejf-523" value="获取model_list.property&lt;br&gt;写入ci_model_property" style="rounded=0;whiteSpace=wrap;html=1;" vertex="1" parent="1">
          <mxGeometry x="1023" y="497" width="120" height="60" as="geometry" />
        </mxCell>
        <mxCell id="FaqCZbPYMvw0_bSV-Ejf-525" value="分别获取model_list.model_headers、unique_rules、property_group&lt;br&gt;写入&lt;br&gt;&lt;div style=&quot;background-color: rgb(255, 255, 255); color: rgb(8, 8, 8); font-size: 9.8pt;&quot;&gt;custom_model_header、&lt;br&gt;&lt;div style=&quot;font-size: 9.8pt;&quot;&gt;ci_model_unique_rule、&lt;br&gt;&lt;div style=&quot;font-size: 9.8pt;&quot;&gt;ci_model_property_group&lt;/div&gt;&lt;/div&gt;&lt;/div&gt;" style="rounded=0;whiteSpace=wrap;html=1;" vertex="1" parent="1">
          <mxGeometry x="1023.5" y="630" width="120" height="60" as="geometry" />
        </mxCell>
        <mxCell id="FaqCZbPYMvw0_bSV-Ejf-530" value="创建模型关联" style="rounded=0;whiteSpace=wrap;html=1;fillColor=#ffe6cc;strokeColor=#d79b00;" vertex="1" parent="1">
          <mxGeometry x="1023.5" y="1230" width="120" height="60" as="geometry" />
        </mxCell>
        <mxCell id="FaqCZbPYMvw0_bSV-Ejf-563" value="" style="edgeStyle=orthogonalEdgeStyle;rounded=0;orthogonalLoop=1;jettySize=auto;html=1;" edge="1" parent="1" source="FaqCZbPYMvw0_bSV-Ejf-542" target="FaqCZbPYMvw0_bSV-Ejf-549">
          <mxGeometry relative="1" as="geometry" />
        </mxCell>
        <mxCell id="FaqCZbPYMvw0_bSV-Ejf-542" value="创建关联发现规则" style="rounded=0;whiteSpace=wrap;html=1;fillColor=#ffe6cc;strokeColor=#d79b00;" vertex="1" parent="1">
          <mxGeometry x="1022.5" y="2400" width="120" height="60" as="geometry" />
        </mxCell>
        <mxCell id="FaqCZbPYMvw0_bSV-Ejf-546" style="edgeStyle=orthogonalEdgeStyle;rounded=0;orthogonalLoop=1;jettySize=auto;html=1;exitX=0.5;exitY=1;exitDx=0;exitDy=0;" edge="1" parent="1" source="FaqCZbPYMvw0_bSV-Ejf-549" target="FaqCZbPYMvw0_bSV-Ejf-551">
          <mxGeometry relative="1" as="geometry">
            <mxPoint x="1082" y="3328.9999999999995" as="targetPoint" />
            <mxPoint x="1070" y="2730" as="sourcePoint" />
          </mxGeometry>
        </mxCell>
        <mxCell id="FaqCZbPYMvw0_bSV-Ejf-549" value="查询process的relation_discovery_rule.status为false的数据" style="rounded=0;whiteSpace=wrap;html=1;" vertex="1" parent="1">
          <mxGeometry x="1022.5" y="2500" width="120" height="60" as="geometry" />
        </mxCell>
        <mxCell id="FaqCZbPYMvw0_bSV-Ejf-550" style="edgeStyle=orthogonalEdgeStyle;rounded=0;orthogonalLoop=1;jettySize=auto;html=1;exitX=0.5;exitY=1;exitDx=0;exitDy=0;entryX=0.5;entryY=0;entryDx=0;entryDy=0;" edge="1" parent="1" source="FaqCZbPYMvw0_bSV-Ejf-551" target="FaqCZbPYMvw0_bSV-Ejf-553">
          <mxGeometry relative="1" as="geometry">
            <mxPoint x="1083" y="2746.9999999999995" as="targetPoint" />
          </mxGeometry>
        </mxCell>
        <mxCell id="FaqCZbPYMvw0_bSV-Ejf-551" value="将模型自动发现规则数据&lt;font color=&quot;#ff3333&quot;&gt;逐个&lt;/font&gt;新增入instance_relation_discovery_rule" style="rounded=0;whiteSpace=wrap;html=1;" vertex="1" parent="1">
          <mxGeometry x="1022.5" y="2600" width="120" height="60" as="geometry" />
        </mxCell>
        <mxCell id="FaqCZbPYMvw0_bSV-Ejf-552" style="edgeStyle=orthogonalEdgeStyle;rounded=0;orthogonalLoop=1;jettySize=auto;html=1;exitX=0.5;exitY=1;exitDx=0;exitDy=0;" edge="1" parent="1" source="FaqCZbPYMvw0_bSV-Ejf-553" target="FaqCZbPYMvw0_bSV-Ejf-558">
          <mxGeometry relative="1" as="geometry" />
        </mxCell>
        <mxCell id="FaqCZbPYMvw0_bSV-Ejf-553" value="更新process的relation_discovery_rule的status" style="rounded=0;whiteSpace=wrap;html=1;" vertex="1" parent="1">
          <mxGeometry x="1023" y="2730" width="120" height="60" as="geometry" />
        </mxCell>
        <mxCell id="FaqCZbPYMvw0_bSV-Ejf-554" style="edgeStyle=orthogonalEdgeStyle;rounded=0;orthogonalLoop=1;jettySize=auto;html=1;exitX=0.5;exitY=1;exitDx=0;exitDy=0;" edge="1" parent="1" source="FaqCZbPYMvw0_bSV-Ejf-558" target="FaqCZbPYMvw0_bSV-Ejf-560">
          <mxGeometry relative="1" as="geometry">
            <mxPoint x="1082.0588235294117" y="3040" as="targetPoint" />
          </mxGeometry>
        </mxCell>
        <mxCell id="FaqCZbPYMvw0_bSV-Ejf-555" value="是" style="edgeLabel;html=1;align=center;verticalAlign=middle;resizable=0;points=[];" vertex="1" connectable="0" parent="FaqCZbPYMvw0_bSV-Ejf-554">
          <mxGeometry x="-0.7699" y="-1" relative="1" as="geometry">
            <mxPoint as="offset" />
          </mxGeometry>
        </mxCell>
        <mxCell id="FaqCZbPYMvw0_bSV-Ejf-556" style="edgeStyle=orthogonalEdgeStyle;rounded=0;orthogonalLoop=1;jettySize=auto;html=1;exitX=1;exitY=0.5;exitDx=0;exitDy=0;entryX=1;entryY=0.5;entryDx=0;entryDy=0;" edge="1" parent="1" source="FaqCZbPYMvw0_bSV-Ejf-558" target="FaqCZbPYMvw0_bSV-Ejf-551">
          <mxGeometry relative="1" as="geometry">
            <Array as="points">
              <mxPoint x="1250" y="2897" />
              <mxPoint x="1250" y="2630" />
            </Array>
          </mxGeometry>
        </mxCell>
        <mxCell id="FaqCZbPYMvw0_bSV-Ejf-557" value="否" style="edgeLabel;html=1;align=center;verticalAlign=middle;resizable=0;points=[];" vertex="1" connectable="0" parent="FaqCZbPYMvw0_bSV-Ejf-556">
          <mxGeometry x="-0.8778" y="1" relative="1" as="geometry">
            <mxPoint as="offset" />
          </mxGeometry>
        </mxCell>
        <mxCell id="FaqCZbPYMvw0_bSV-Ejf-558" value="是否遍历完所有数据" style="rhombus;whiteSpace=wrap;html=1;" vertex="1" parent="1">
          <mxGeometry x="1042.5" y="2857" width="80" height="80" as="geometry" />
        </mxCell>
        <mxCell id="FaqCZbPYMvw0_bSV-Ejf-559" value="" style="edgeStyle=orthogonalEdgeStyle;rounded=0;orthogonalLoop=1;jettySize=auto;html=1;" edge="1" parent="1" source="FaqCZbPYMvw0_bSV-Ejf-560" target="FaqCZbPYMvw0_bSV-Ejf-564">
          <mxGeometry relative="1" as="geometry">
            <mxPoint x="1083" y="3235" as="targetPoint" />
          </mxGeometry>
        </mxCell>
        <mxCell id="FaqCZbPYMvw0_bSV-Ejf-560" value="异步触发&lt;br style=&quot;border-color: var(--border-color);&quot;&gt;&quot;process-notify&quot;&lt;br style=&quot;border-color: var(--border-color);&quot;&gt;事件推送，告知前端data-entry:3//模型自动发现规则&lt;br style=&quot;border-color: var(--border-color);&quot;&gt;total_count: 5&lt;br style=&quot;border-color: var(--border-color);&quot;&gt;success_count:4&lt;br&gt;failure_count:1" style="rounded=0;whiteSpace=wrap;html=1;" vertex="1" parent="1">
          <mxGeometry x="1023" y="3049" width="120" height="146" as="geometry" />
        </mxCell>
        <mxCell id="FaqCZbPYMvw0_bSV-Ejf-565" value="" style="edgeStyle=orthogonalEdgeStyle;rounded=0;orthogonalLoop=1;jettySize=auto;html=1;" edge="1" parent="1" source="FaqCZbPYMvw0_bSV-Ejf-564" target="FaqCZbPYMvw0_bSV-Ejf-300">
          <mxGeometry relative="1" as="geometry" />
        </mxCell>
        <mxCell id="FaqCZbPYMvw0_bSV-Ejf-564" value="导入数据" style="rounded=0;whiteSpace=wrap;html=1;fillColor=#ffe6cc;strokeColor=#d79b00;" vertex="1" parent="1">
          <mxGeometry x="1022.5" y="3230" width="120" height="60" as="geometry" />
        </mxCell>
        <mxCell id="FaqCZbPYMvw0_bSV-Ejf-566" value="异步触发&lt;br style=&quot;border-color: var(--border-color);&quot;&gt;&quot;process-notify&quot;&lt;br style=&quot;border-color: var(--border-color);&quot;&gt;事件推送，告知前端data-entry:4//数据录入&lt;br style=&quot;border-color: var(--border-color);&quot;&gt;total_count: 5&lt;br style=&quot;border-color: var(--border-color);&quot;&gt;success_count:4&lt;br&gt;failure_count:1" style="rounded=0;whiteSpace=wrap;html=1;" vertex="1" parent="1">
          <mxGeometry x="1023.5" y="4520" width="120" height="146" as="geometry" />
        </mxCell>
        <mxCell id="FaqCZbPYMvw0_bSV-Ejf-568" value="" style="edgeStyle=orthogonalEdgeStyle;rounded=0;orthogonalLoop=1;jettySize=auto;html=1;" edge="1" parent="1" source="FaqCZbPYMvw0_bSV-Ejf-567" target="FaqCZbPYMvw0_bSV-Ejf-566">
          <mxGeometry relative="1" as="geometry" />
        </mxCell>
        <mxCell id="FaqCZbPYMvw0_bSV-Ejf-567" value="将失败数据写入&lt;span style=&quot;color: rgb(51, 51, 51); text-align: start; background-color: initial;&quot;&gt;process_ci_model_error_instances&lt;/span&gt;" style="rounded=0;whiteSpace=wrap;html=1;" vertex="1" parent="1">
          <mxGeometry x="1023.5" y="4400" width="120" height="60" as="geometry" />
        </mxCell>
      </root>
    </mxGraphModel>
  </diagram>
</mxfile>
